<svg xmlns="http://www.w3.org/2000/svg" width="50" height="50" viewBox="0 0 50 50"><g fill="none" fill-rule="evenodd"><circle cx="40" cy="40" r="40" fill="#F0F0F0"/><path d="M8.269 15.647a39.854 39.854 0 0 0-6.891 13.918h20.809L8.269 15.647zm70.353 13.918a39.857 39.857 0 0 0-6.89-13.918l-13.92 13.918h20.809zM1.378 50.435a39.858 39.858 0 0 0 6.89 13.918l13.919-13.918H1.378zM64.353 8.269a39.856 39.856 0 0 0-13.918-6.891v20.809L64.353 8.269zM15.647 71.731a39.858 39.858 0 0 0 13.918 6.891V57.813L15.647 71.731zM29.565 1.378a39.858 39.858 0 0 0-13.918 6.89l13.918 13.919V1.378zm20.87 77.244a39.858 39.858 0 0 0 13.918-6.89l-13.918-13.92v20.809zm7.378-28.187l13.918 13.918a39.856 39.856 0 0 0 6.891-13.918H57.813z" fill="#0052B4"/><g fill="#D80027"><path d="M79.661 34.783H45.218V.339a40.4 40.4 0 0 0-10.435 0v34.443H.339a40.4 40.4 0 0 0 0 10.435h34.443v34.444a40.396 40.396 0 0 0 10.435 0V45.218h34.444a40.396 40.396 0 0 0 0-10.435z"/><path d="M50.435 50.435l17.85 17.85a40.1 40.1 0 0 0 2.35-2.569L55.354 50.435h-4.92zm-20.87 0l-17.85 17.85a40.1 40.1 0 0 0 2.569 2.35l15.281-15.281v-4.919zm0-20.87l-17.85-17.85a40.1 40.1 0 0 0-2.35 2.569l15.281 15.281h4.92zm20.87 0l17.85-17.85a40.051 40.051 0 0 0-2.569-2.35L50.435 24.646v4.92z"/></g></g></svg>