<svg xmlns="http://www.w3.org/2000/svg" width="24" height="22" viewBox="0 0 24 22"><g fill="#545454" fill-rule="evenodd"><path d="M.487 11A.493.493 0 0 1 0 10.5C0 6.916 2.841 4 6.333 4h12.18c.27 0 .487.223.487.5s-.218.5-.487.5H6.333C3.38 5 .974 7.468.974 10.5c0 .277-.217.5-.487.5z"/><path d="M18 8l6-4-6-4zm-.333 10H5.487A.493.493 0 0 1 5 17.5c0-.276.218-.5.487-.5h12.18c2.954 0 5.359-2.467 5.359-5.5 0-.277.217-.5.487-.5s.487.223.487.5c0 3.584-2.841 6.5-6.333 6.5z"/><path d="M6 14l-6 4 6 4z"/></g></svg>