<svg xmlns="http://www.w3.org/2000/svg" xmlns:xlink="http://www.w3.org/1999/xlink" width="211" height="362" viewBox="0 0 211 362"><defs><path id="a" d="M59.848 15.764V.517H.623v15.247h59.225z"/></defs><g fill="none" fill-rule="evenodd"><path fill="#393939" d="M37.476 106.237c-.153-.56.029-.936.545-1.127-.013.01.72.83.713.935-.555 7.105-1.454 14.192-2.411 21.253-.343 2.524-.105 6.42-1.91 8.312-1.873 1.962-1.69 3.422-.607 5.96-.257-.602-.938-1.035-1.2-1.65-1.08-2.533-1.255-3.986.62-5.937 1.796-1.866 1.594-5.73 1.964-8.231 1.017-6.87 1.843-13.767 2.831-20.642l.713.935c-.525-.16-.865.005-1.02.492.02-.03-.242-.246-.238-.3m18.409 38.022c-1.405.244-2.39-.39-3.64-.963-1.572-.722-3.12-1.2-4.809-1.59-3.134-.722-6.087-1.307-8.549-3.53-.472-.426-.68-1.14-1.141-1.56 2.5 2.275 5.553 2.942 8.726 3.795 3.125.84 5.902 2.96 9.065 3.406.105.014.264.456.348.442"/><path fill="#393939" d="M43.046 140.72c-2.943.354-6.016-.013-8.877-.733-.415-.105-.566-1.173-.951-1.277 3.09.833 6.114 1.166 9.3 1.33.172.01.385.697.528.68m-10.032.397c1.97 3.262 4.142 6.925 3.061 10.863.09-.324-1.102-1.005-1.017-1.374.86-3.755-.646-6.857-2.494-10.06.088.152.333.378.45.571m3.355 11.131c.227.654.328 1.437.69 2.038.317.522.918.905 1.447 1.204 1.308.74 2.811 1.042 4.257 1.387.427.102.604 1.262 1 1.347-2.313-.496-4.595-1.186-6.147-3.071-.429-.522-2.149-2.552-1.406-3.104.002-.001.151.178.159.2m26.772 5.096c-2.305-3.15-6.42-4.755-10.249-4.625-4.083.138-7.364 3.046-11.031-.116-.547-.471-.754-1.351-1.297-1.8 2.816 2.327 5.085 1.331 8.229.535 2.83-.718 5.818-.366 8.46.858 2.544 1.179 4.509 3.104 6.078 5.382-.04-.059-.135-.16-.19-.234m-.964.588l-.118-.25.38.485c.726 2.91 1.243 6.39-.687 8.963-1.504 2.007-4.043 2.978-6.425 3.431-3.274.624-5.83-.491-6.828-3.75.218.71 1.165 1.214 1.388 1.946l.194.63-.86-1.244.388.537-.529-.7c2.466 1.984 7.174.523 9.6-1.015 3.504-2.222 3.27-5.606 3.38-9.283-.002.038.39.481.38.485a4.881 4.881 0 0 0-.057.023c-.018.006-.193-.23-.206-.258"/><path fill="#393939" d="M51.61 154.242c1.055 1.35 2.193 2.73 2.962 4.268 1.475 2.947 2.852 9.241-.925 11.143-4.981 2.506-8.787-7.327-9.229-10.514.093.669 1.267 1.207 1.365 1.908.313 2.221.877 5.044 2.868 6.362 1.506.997 3.23.982 4.563-.287 3.312-3.152.883-9.608-1.33-12.482-.118-.152-.728-.98-.274-.398"/><path fill="#393939" d="M48.436 159.237c-.182 1.16-.134 2.265.289 3.37.386 1.008 1.279 1.512 2.386 1.956.445.179.62 1.307 1.047 1.419-1.608-.422-2.583-1.755-3.497-3.04-.975-1.371-1.56-2.993-.945-4.651-.072.191.757.707.72.946m-2.225-2.37c-.075.052-.1.135-.175.195-.052.043-.126.065-.181.106a1.094 1.094 0 0 0-.336.44c-.076.18-.096.38-.09.574.003.093.011.189.03.28.01.05.024.099.041.146.181.451-.059.138-.72-.941.19.175.338.427.492.633.148.199.283.488.466.653-.346-.31-.611-.75-.882-1.124-.175-.242-.393-.498-.359-.818.025-.235.184-.481.343-.648a.967.967 0 0 1 .318-.23c.214-.093.33-.001.539.072.081.028.498.674.514.662m-.551 7.079l-.242.01c-.096.004-.496-.603-.542-.7-.23-.497-.187-.67.38-.594.163.021.695.836.756.995.873 2.307-1.32 6.58-2.09 8.808-1.08 3.124-2.046 6.226-2.552 9.502-.948 6.143-.612 12.432.445 18.537 2.315 13.358 7.544 26.367 12.196 39.054 2.294 6.255 4.72 12.466 7.437 18.552 2.575 5.768 5.925 11.3 7.968 17.285 1.956 5.73 2.193 11.887 4.211 17.597 2.235 6.323 7.998 11.163 14.924 9.057.264-.08 1.135 1.925 1.337 1.864-6.88 2.091-12.225-2.836-15.52-8.291-2.562-4.241-3.416-9.193-4.325-13.987-1.061-5.601-2.77-10.618-5.31-15.721-5.236-10.525-9.625-21.353-13.565-32.423-3.955-11.114-8.348-22.367-10.448-34.013-1.132-6.278-1.504-12.752-.493-19.073.518-3.236 1.464-6.32 2.64-9.37.83-2.156 3.137-6.107 2.39-8.373l.755.995c-.437-.157-.803-.26-.594.299l-.542-.7.294.061c.17.035.342.635.49.629m3.04-49.328c.136.397.24.802.314 1.214l-.69-.903c2.162-1.777 6.469-.966 8.85-.111.49.176.63 1.33 1.094 1.488-1.47-.5-2.963-.826-4.519-.869-1.604-.044-3.156.424-4.735.395-.076-.001-.708-.87-.69-.903a.624.624 0 0 1 .33-.369s.045.052.047.058m8.723 2.539c.579 2.917 1.867 5.53 2.649 8.375.682 2.482.696 4.976.583 7.534-.105 2.38-.188 4.82-.686 7.158-.463 2.171-2.526 4.94-1.828 7.038l-.804-1.153c.804 1.108 1.65 2.141 2.388 3.3-.28-.439-.891-1.151-1.248-1.712.383.602-.195-.214-.304-.361-.359-.485-.895-1.044-1.152-1.602-1.036-2.247 1.153-4.942 1.674-7.274.74-3.314.998-6.958.912-10.35-.103-4.063-2.248-7.529-2.622-11.513.019.192.398.358.438.56"/><path fill="#393939" d="M58.51 149.005c3.177 4.166 5.52 8.758 5.021 14.158-.363 3.928-1.876 7.608-2.665 11.45-.781 3.804-.666 7.665-.814 11.525-.307 8.026-1.987 15.587-3.842 23.36-.76 3.181-1.467 6.852-.366 10.056 1.251 3.64 5.075 5.138 8.569 3.81.212-.082 1.188 1.92 1.337 1.862-4.35 1.671-7.697-1.195-9.896-4.646-4.017-6.306-.544-13.886.866-20.456a92.428 92.428 0 0 0 1.809-12.67c.296-4.08.069-8.215.609-12.273.567-4.275 2.315-8.263 3.007-12.506.848-5.2-.687-9.755-3.856-13.928-.31-.409.14.152.22.258m32.986 48.036l-.069 1.218-.683-.895c4.216-.274 7.802-1.41 10.73 2.316 2.315 2.948 2.927 6.174 2.35 9.91-.746 4.81-3.01 9.761-7.238 12.454-4.916 3.13-11.032 2.296-16.417 1.102-.585-.13-.814-1.77-1.354-1.89 7.866 1.758 16.472 1.793 21.113-5.901 1.907-3.163 3.087-7.15 2.93-10.853-.308-7.354-6.19-6.102-11.431-6.243-.075-.002-.705-.843-.683-.895l.34-.85c-.039.097.42.4.412.527"/><path fill="#393939" d="M76.339 222.013c-.77.48-1.085-.149-1.51-.73-1.407-1.927-.428-4.245 1.406-5.532 3.288-2.31 6.293-.76 9.804-.623 2.86.111 5.797-1.758 7.928.936.105.132 1.134 1.557 1.123 1.564-.681.43-1.372.842-2.072 1.239-.075.043-1.17-1.642-1.188-1.63.672-.444 1.353-.87 2.046-1.281l1.123 1.564c-1.524-1.927-3.634-1.26-5.678-.945-2.207.34-3.957-.373-6.114-.591-2.65-.27-10.388 1.732-7.793 6.046l-.722-.943c.325.415.723.532 1.196.348.077-.009.417.599.45.578m-17.33-13.368c.185 4.961-.513 10.458 2.531 14.788-.336-.458-.672-.915-1.01-1.372 3.03 2.784 8.848 2.876 11.945.25-.023.018 1.424 1.817 1.348 1.88-3.576 3.034-10.073 2.38-12.825-1.443-3.072-4.265-3.582-9.621-2.46-14.707-.032.148.464.43.47.604"/><path fill="#393939" d="M87.549 211.803c-5.613.65-11.469.022-16.204 3.762-1.695 1.338-3.015 3.425-5.07 4.256-2.713 1.097-4.94-.441-6.809-2.335-.457-.463-.707-1.13-1.158-1.587 1.705 1.726 3.847 3.312 6.404 2.521 2.27-.702 3.717-2.97 5.526-4.362 4.781-3.677 11.392-3.588 17.047-2.588.084.015.194.341.264.333m1.555-12.036c-2.95 1.813-5.451 3.805-7.502 6.63.036-.05-.525-.544-.476-.612 1.928-2.697 4.605-5.097 7.707-6.359.034-.013.255.352.27.341m10.499 5.785c.17 2.745-1.018 5.347-3.13 7.089-.003.003-.423-.518-.412-.526 2.147-1.736 3.248-4.164 3.27-6.904 0 .11.264.223.272.341m-21.836-56.968c.738 2.855-2.144 5.95-3.36 8.422-1.579 3.213-1.231 6.662-.807 10.109-.061-.495-.975-.899-1.047-1.418-.478-3.421-.879-6.963.787-10.14 1.194-2.276 4.211-4.92 3.938-7.602.022.214.432.407.489.629m-5.667 21.76c.702 6.778-1.449 13.79-2.372 20.475-.868 6.275-.95 12.593 1.237 18.616-.221-.607-.98-1.034-1.205-1.658-2.175-5.997-2.072-12.235-1.144-18.473.47-3.156 1.142-6.276 1.742-9.409.611-3.184.769-6.581 1.629-9.692-.008.03.109.104.113.14m-7.041 1.43c.57 9.207-2.817 17.985-3.243 27.121.015-.323-.814-.702-.794-1.05.497-8.905 3.888-17.368 3.832-26.328 0 .083.2.168.205.257m-2.826 30.977c-.286 0-.558-1.075-.812-1.075.286 0 .559 1.076.812 1.076m1.555-66.736c.568 1.651.069 4.019.141 5.76.08 1.906.264 3.797.542 5.684.554 3.77 1.265 7.555 2.214 11.244-.114-.445-.789-.756-.91-1.216-1.882-7.164-3.03-14.698-2.2-22.096-.01.087.235.223.252.32l.081.453c-.01-.052-.101-.096-.12-.149m-2.52 9.915a15.245 15.245 0 0 0-.044-.95c.14.178.28.356.418.534-.44.791-1.042 1.498-1.531 2.262-.485.758-.94 1.535-1.388 2.315.062-.108-.72-.708-.646-.843.803-1.468 1.831-3.202 3.147-4.268-.015.013.437.478.418.534-.074.227-.116.448-.163.681.014-.067-.21-.187-.211-.266m15.523-24.958c-1.347 3.117-1.79 6.64-2.955 9.86-1.017 2.812-3.318 8.101-.918 10.892.342.397.727 1.057.996 1.364-1.658-1.89-2.93-3.793-2.94-6.454-.013-3.07 1.484-5.844 2.608-8.618.675-1.669 1.378-6.582 3.189-7.068l.02.024m4.98 18.589c-1.462 2.963-2.345 5.867-3.245 9.027.064-.227-.786-.708-.739-.972.542-2.999 1.923-6.068 3.52-8.65-.044.071.511.499.464.595"/><path fill="#393939" d="M75.1 147.995c-3.574-4.78.575-9.6 5.353-11.054.193-.058.815 1.341.964 1.295-3.915 1.218-9.402 5.545-6.048 10.089a9.416 9.416 0 0 1-.268-.33m86.673-15.325l-.242-1.645c.038.256.557.47.572.742.36 6.377-5.17 22.24-14.208 17.337-.463-.251-.574-1.13-1.018-1.374 9.016 4.941 14.283-10.42 14.654-16.705l.572.742-.277.969c.004-.013-.05-.05-.053-.066"/><path fill="#393939" d="M159.27 149.302c-6.945 3.505-16.094-3.147-22.584-5.374-8.134-2.79-16.567-4.195-25.142-4.596-.385-.019-.704-1.408-1.047-1.419 8.586.254 17.117 1.87 25.22 4.712 7.744 2.717 14.844 7.821 23.367 6.444.036-.006.166.243.186.233m-3.163 4.323c-8.882.855-16.501-2.762-24.483-6.012-6.528-2.657-14.573-4.125-20.066 1.412.062-.062-1.453-1.766-1.342-1.872 5.63-5.384 13.763-3.776 20.275-1.086 3.756 1.551 7.369 3.422 11.259 4.635 4.547 1.42 9.198 1.97 13.926 2.371.144.012.31.564.431.552m-45.754-5.509c-1.138.32-.71.572-.659 1.577.036.735.01 1.47-.077 2.2a13.365 13.365 0 0 1-1.188 4.156 12.53 12.53 0 0 1-2.15 3.12c-.965 1.033-2.678 1.79-2.642 3.331l-1.044-1.425c1.323 1.384 3.427.588 4.7-.363.016-.013 1.117 1.458 1.089 1.48-1.603 1.214-5.838 1.457-5.818-1.495.007-1.158 1.62-1.884 2.398-2.613a13.665 13.665 0 0 0 2.538-3.28c.662-1.178 1.175-2.447 1.458-3.772.11-.518.185-1.049.227-1.577.106-1.308-.453-1.627 1.142-1.373.006.002.021.035.026.034"/><path fill="#393939" d="M113.361 155.93a6.84 6.84 0 0 1-6.648 3.035c-.202-.027-.314-.616-.5-.646 2.657.431 5.237-.602 6.872-2.739-.02.027.303.31.276.35m38.009-2.119c-8.14 10.166-26.005 16.664-36.821 7.061-.477-.423-.68-1.152-1.147-1.569 11.716 10.423 27.357 2.007 37.73-5.792 0 .002.25.285.239.3"/><path fill="#393939" d="M113.337 148.637c-.53 2.478-1.324 4.647-.743 7.223.64 2.836 3.073 5.274 6.067 5.404 5.545.24 6.093-6.575 6.04-10.542.006.51 1.13 1.023 1.146 1.568.107 3.401.095 7.582-3.065 9.716-2.797 1.89-6.12.265-8.117-1.998-2.557-2.9-5.246-8.563-1.513-11.604-.006.005.19.207.185.233"/><path fill="#393939" d="M118.746 150.884c.029.4.098.794.209 1.18l-.562-.727a1.392 1.392 0 0 1 2.268-.702c.398.337.74.868 1.022 1.3 1.303 2 .215 5.342-2.445 5.376-1.602.02-2.95-1.78-3.472-3.162-.35-.923-.695-2.9-.039-3.748.708-.915 2.174-.552 3.095-.264.486.152.639 1.352 1.094 1.49-1.378-.416-3.212-.606-3.393 1.252-.08.834.143 1.613.225 2.425.152.362.145.413-.021.152.171.12.355.214.552.286.346.13.712.175 1.08.16 1.685-.07 2.895-1.61 2.989-3.221.052-.88.037-1.22-.65-1.388-.71-.174-1.453.087-1.743.77.044-.105-.635-.618-.562-.726a.881.881 0 0 0 .24-.593c-.007.032.108.102.113.14m33.429 6.079c-1.818 8.655-10.69 12.153-18.61 12.98-8.701.907-17.544-.876-24.92-5.642-.449-.29-.571-1.08-1.007-1.356 7.476 4.742 16.269 6.544 25.057 5.837 8.076-.65 16.603-3.65 19.354-11.976-.011.034.134.117.126.157"/><path fill="#393939" d="M122.062 165.807c-4.24-.2-8.313-2.126-11.616-4.7-.32-.25-.443-.754-.757-.998 3.622 2.812 7.594 4.31 12.037 5.273.126.027.222.42.336.425m-10.21-26.101c-5.866-.724-10.778 1.505-14.578 5.918.06-.07-.884-.95-.807-1.068 3.208-4.904 9.676-6.773 15.16-5.132.088.026.144.272.225.282m-15.066 5.704c.374 3.51.977 6.654 3.641 9.255.193.189.38.546.529.692-2.534-2.486-4.992-6.345-4.23-10.021-.004.017.058.053.06.074m9.09 19.725c2.524 6.68 8.317 11.003 15.379 11.679.336.032.555 1.114.86 1.145-7.487-.77-14.228-6.154-16.619-13.308.06.18.31.3.38.484"/><path fill="#393939" d="M111.135 173.193a20.752 20.752 0 0 0 5.982 5.725c.25.159.328.589.57.74-2.601-1.61-5.114-3.943-6.675-6.616.024.04.089.102.123.15M93.814 135.48c-.617 2.231-2.009 4.047-2.931 6.144-.61 1.387-1.73 4.143-1.028 5.622l-.74-.973c1.674.43 3.7.225 5.426.325.282.017.518 1.011.77 1.016-1.635-.031-5.394.736-6.185-1.321-.502-1.305.38-3.432.882-4.682.938-2.335 2.557-4.292 3.368-6.69-.04.117.476.422.438.56m47.416 4.217c-11.36-.076-22.951-2.419-33.96-5.039-.273-.065-.385-.773-.64-.834 11.414 2.746 22.898 4.104 34.495 5.74.039.006.071.133.106.133m-18.826-11.1c-3.879 1.815-8.238 2.8-12.463 3.381-.159.022-.415-.732-.551-.713 4.396-.605 8.523-1.75 12.776-2.968.043-.012.21.312.238.3m-12.291 1.59c-2.028 1.362-4.412 2.397-6.814 2.87-.095.018-.305-.504-.381-.485 2.489-.627 4.768-1.404 7.082-2.526.01-.005.108.144.113.14"/><path fill="#393939" d="M105.558 130.708c-3.552 2.825-7.747 4.638-12.273 5.133-2.146.235-3.931.242-5.863 1.3-1.749.96-2.89 2.222-4.963 2.484-.268.034-.687-1.254-.915-1.225 1.876-.237 3.03-1.283 4.596-2.237 2.022-1.233 3.946-1.277 6.263-1.498 4.63-.44 8.85-2.005 12.807-4.4.018-.01.347.443.348.443m21.749-9.816c-8.956 1.356-17.923 2.64-26.883 3.973-3.69.55-7.617.784-10.996 2.486-3.033 1.528-5.674 3.754-9.26 3.305-.321-.04-.512-1.03-.806-1.067 3.408.43 5.955-1.568 8.827-3.073 3.538-1.855 7.582-2.096 11.476-2.651 9.071-1.294 18.152-2.476 27.262-3.457.112-.012.286.499.38.484m-6.474-15.966c-8.881 5.578-17.756 10.514-25.8 17.352.002-.002-.737-.906-.708-.93 7.823-6.522 16.722-13.06 26.356-16.612.02-.008.143.197.152.19m.924-18.349a1.304 1.304 0 0 1-.312-1.122l.52.672a218.56 218.56 0 0 0-.67 15.629c.003-.335-.802-.693-.793-1.051.125-5.096.44-10.177.943-15.25-.02.189.559.47.52.672a.726.726 0 0 0 .063.791c-.052-.125-.206-.219-.271-.34m.595 17.242c1.164 4.113 2.167 8.275 3.235 12.414-.102-.393-.713-.667-.813-1.077-.983-3.985-2.047-7.962-2.917-11.974.05.23.428.4.495.637m36.438 23.978c-5.505-3.327-10.747-7.048-15.766-11.068-.217-.174-.309-.5-.52-.672 5.122 4.138 10.485 7.922 16.049 11.44.102.066.137.24.238.3m2.219 4.394c-7.066-2.16-14.013-4.775-20.88-7.496-.275-.11-.353-.695-.615-.8 6.978 2.83 14.052 5.343 21.147 7.854.151.053.206.399.349.442m-15.868-3.996c-3.352-.01-6.667.777-10.018.941-3.711.183-7.402-.024-11.084-.506-.266-.035-.416-.824-.659-.86 3.732.557 7.475.838 11.25.73 3.391-.095 6.959-1.06 10.319-.545.07.01.13.24.192.24m-6.583-5.032c-2.721-.085-5.26-.945-7.557-2.388-.217-.137-.285-.504-.495-.637 2.396 1.534 5.008 2.396 7.826 2.742.085.01.15.281.225.283m-18.268-21.239a188.45 188.45 0 0 0-27.571 1.778c-.161.023-.42-.74-.558-.722a180.348 180.348 0 0 1 27.723-1.574c.145.002.277.517.406.518M88.225 94.29l-.147-.658.3.377a44.388 44.388 0 0 0-4.783 9.304c.036-.1-.45-.405-.406-.518a43.813 43.813 0 0 1 4.885-9.171c-.01.014.275.336.299.377.191.33.162.154.064.554.016-.064-.225-.191-.212-.265m-19.302 4.085c.316 1.9.267 3.908.36 5.833-.008-.173-.4-.335-.406-.519-.055-1.766-.355-3.74-.093-5.488-.007.045.131.123.14.174m-3.36 5.105c.241.673.506 1.342.72 2.024-.046-.145-.253-.245-.31-.391-.26-.666-.483-1.35-.72-2.024.052.146.256.242.31.392m-2.788-.551c-.185.78-.37 1.56-.546 2.342.02-.087-.318-.27-.29-.366.216-.744.423-1.489.63-2.234-.016.06.222.19.206.258m18.451 2.355c-4.356-1.113-9.589 1.143-13.768 2.37a235.044 235.044 0 0 0-13.669 4.495c-.117.042-.56-.883-.652-.852a238.51 238.51 0 0 1 13.848-4.25c4.254-1.16 9.586-3.432 13.951-2.13.123.038.174.337.29.367m-23.019 17.564c-2.884 1.327-6.098 2.264-9.227 2.79-.162.028-.466-.807-.602-.782 3.255-.6 6.292-1.45 9.416-2.536.068-.023.368.548.413.528m.663 1.585c-2.155 1.36-4.918 1.983-7.424 2.248-.171.018-.41-.737-.559-.723 2.729-.263 5.103-1.061 7.687-1.9.04-.013.277.387.296.375m2.292 1.733c-1.22 1.635-3.31 2.322-5.14 3.074-2.214.91-4.48 1.664-6.782 2.313-.15.043-.554-.916-.677-.885 3.898-.96 9.326-2 12.277-4.91-.014.014.346.376.322.408m-1.44 7.622c-3.518 1.099-7.186 1.154-10.789.454-.225-.045-.33-.655-.539-.697 3.717.771 7.28.607 10.974-.208.081-.018.293.47.354.45m-3.492 14.146c-2.722-.289-6.35-1.584-8.99-.47-2.203.93-3.623 2.926-6.17 3.017-.216.008-.449-.84-.64-.834 2.557-.07 3.992-2.062 6.235-2.927 2.789-1.076 6.584.377 9.367.964.078.017.126.242.198.25m-7.923 20.684c-2.003 2.829-1.065 6.718 2.814 6.907.206.01.366.703.552.713-3.736-.222-6.717-5.05-3.733-8.087-.02.019.395.427.367.467"/><path fill="#393939" d="M55.942 172.398c-2.301.94-5.694-.398-7.697-1.537-.229-.13-.294-.534-.514-.663 1.218.714 2.493 1.27 3.867 1.61 1.425.353 2.856.3 4.29.524.012.002.047.07.054.066m63.478 69.62l.046-1.54.444.57c-.257 1.39-.563 6.095-2.294 5.79a7.05 7.05 0 0 0-2.017-1.78c-.55-.317-1.12-.596-1.707-.838-1.212-.569-2.458-1.075-3.685-1.612-5.75-2.515-11.557-5.624-17.556-7.482-2.71-.839-5.496-1.167-8.134.08-2.215 1.046-3.937 3.028-6.422 3.492-.607.114-2.898-.53-3.071-.44-.654.339-.584 2.548-.533 3.144.262 3.061 2.874 4.172 5.599 4.123.373-.007.754 1.476 1.082 1.47-3.009.048-5.164-1.566-6.68-4.011-.59-.953-.974-1.89-1.071-3.035a6.124 6.124 0 0 1 .112-1.83c.337-1.575.288-.82 1.24-.924 1.535-.166 2.468.194 4.033-.554 1.486-.71 2.7-1.865 4.151-2.634 6.45-3.415 14.832 2.2 20.683 4.776 3.474 1.53 7.197 2.845 10.52 4.677.551.303 2.557 2.408 3.237 2.214 1.157-.33 1.75-4.195 2.07-5.195-.038.117.492.438.443.569l-.404 1.077c.007-.02-.087-.08-.087-.107"/><path fill="#393939" d="M73.94 238.18c-2.184-.32-4.478-2.25-6.333-.401-1.482 1.478-3.043 4.497-2.365 6.622.238.745.794 1.524 1.44 1.968.61.418.735.268 1.05.128.163-.073.64-1.016.979-1.195.388-.206.89-.276 1.325-.263 1.112.034 2.115.736 3.145 1.067 1.486.478 2.888.46 4.4.138.264-.055.87 1.52 1.082 1.472-2.077.48-3.6.186-5.544-.581-2.065-.817-2.65-.64-4.238.532.09.606-.064.769-.463.487a3.535 3.535 0 0 1-.967-.493c-.433-.288-.754-.614-1.097-1-.325-.365-.607-.788-.888-1.186-1.304-1.85-1.8-3.699-.8-5.893.542-1.19 1.539-3.147 2.769-3.718 1.804-.836 4.774 1.192 6.254 2 .084.047.167.304.251.316"/><path fill="#393939" d="M109.662 249.016c-3.877 4.456-7.77 7.548-13.949 7.05-2.837-.23-5.549-.606-8.41-.336-2.812.264-5.572.908-8.376 1.23-3.425.392-7.575.817-9.856-2.207-1.788-2.371-1.364-4.777.09-7.37-.117.208 1.271 1.289 1.13 1.542-1.125 1.995-1.846 3.986-.93 6.196l-1.035-1.429c2.2 2.794 7.02 2.089 10.115 1.715 3.809-.46 7.59-1.362 11.45-1.175 3.596.173 7.2 1.295 10.781.354 3.491-.916 6.188-3.463 8.844-5.752-.003.002.154.172.146.182m.312 19.28c-5.808-2.31-11.958-2.922-18.174-2.687-3.129.117-6.238.478-9.334.938-1.258.186-6.977.401-7.492 1.348l-1.147-1.568c.176.171.284.147.323-.074-.121.236 1.291 1.286 1.146 1.569-.039.22-.146.245-.322.073-.163-.073-1.198-1.473-1.147-1.568.487-.892 5.734-1.08 6.913-1.256 3.31-.492 6.651-.824 9.997-.904 6.602-.16 13.03.979 19.006 3.839.099.047.134.252.23.29"/><path fill="#393939" d="M82.376 265.976c-.192 2.278-1.493 4.19-2.402 6.246-.817 1.85.354 3.87.952 5.706-.181-.556-.924-.943-1.112-1.516-.59-1.8-1.776-3.828-.895-5.619.781-1.585 1.792-4.065 3.378-4.916 0 0 .08.09.08.1"/><path fill="#393939" d="M80.324 279.03a3.083 3.083 0 0 1 .244-2.013c-.051.177.625.617.64.835.544 7.554 2.596 14.94 7.256 21.056.16.21 1.07 1.464.47.68-5.012-6.557-8.405-14.18-8.366-22.571l.64.835c-.584.335-.798.83-.64 1.486.005-.095-.238-.204-.244-.308m5.014-.405l-.244-.69.455.584c-.706 5.718.624 11.66 4.771 15.9.284.291.564.825.783 1.051-4.578-4.719-7.196-10.863-6.009-17.535-.028.157.47.407.455.584l-.026.338c.004-.06-.163-.17-.185-.232m2.949-12.145c-.128 1.008-1.159 1.977-1.718 2.832a30.724 30.724 0 0 0-1.61 2.795c.086-.168-1.028-1.022-.91-1.215a28.723 28.723 0 0 1 1.756-2.587c.533-.696 1.342-2.05 2.238-2.134.025-.002.248.281.244.308m3.953 8.375c-5.772-1.542-11.097-1.66-16.816.225-.112.037-.5-.786-.584-.757 5.628-1.929 11.724-1.922 17.254.35.06.025.088.167.146.182m-17.447 4.3c-.212 2.116-.755 4.074-.601 6.231.147 2.072.717 4.01 1.596 5.886-.12-.257-.418-.435-.54-.697-1.447-3.123-2.626-8.38-.508-11.486-.005.006.054.054.053.066m43.567 12.764c-.168 1.517-2.888 4-4.016 4.984-1.65 1.44-3.55 2.576-5.563 3.43-4.836 2.054-10.124 2.299-15.303 1.992-.277-.016-.483-.946-.732-.963 5.205.355 10.53.153 15.433-1.811 2.036-.815 3.956-1.916 5.651-3.31 1.683-1.386 2.705-3.567 4.344-4.84l.007.007.215.24c.026.03.223.312.242.306l-.204.056a.448.448 0 0 1-.074-.091m-3.317-21.105c4.793 2.434 5.5 10.222 5.145 14.779.013-.164-.447-.374-.43-.552.397-4.403-.232-11.579-4.55-14.02-.07-.04-.095-.171-.165-.207m5.953 2.367a18.142 18.142 0 0 1 1.496 9.19c.013-.14-.39-.326-.374-.477a17.75 17.75 0 0 0-1.36-9.012c.048.111.188.186.238.3m-10.758 11.814c-2.533 2.77-5.919 4.26-9.67 4.356-.14.004-.28-.519-.406-.518 3.758-.022 7.196-1.456 9.924-4.03-.004.005.16.182.152.192m-17.609-6.571c4.593 2.798 6.514 8.37 4.073 13.39.017-.035-.206-.189-.186-.232 2.196-4.841 1.022-10.08-3.794-13.042-.04-.025-.054-.092-.093-.116m27.881-30.569c2.495-.635 4.866.561 6.35 2.579 3.027 4.112 1.5 9.204-.938 13.18.04-.065-.5-.494-.45-.578 1.615-2.698 2.975-5.661 2.634-8.886-.436-4.12-3.55-6.46-7.477-6.147-.032.003-.094-.154-.12-.148m4.519 18.745c-.286 0-.558-1.076-.813-1.076.287 0 .56 1.076.813 1.076m-5.417-16.523c1.827 1.944 2.235 4.85.566 7.058.017-.024-.282-.292-.257-.324 1.428-1.914 1.52-4.746-.168-6.558-.049-.05-.103-.136-.14-.176m-3.757 5.42c.266 2.506-.62 4.89-2.502 6.575 0-.002-.22-.258-.212-.267 1.859-1.649 2.816-3.987 2.587-6.465.006.054.12.1.127.157m-5.435 3.188c.257 2.262-.346 4.402-1.769 6.183.017-.021-.309-.328-.284-.358 1.414-1.702 2.09-3.811 1.9-6.016.006.066.145.121.153.19m70.31-117.216c8.775 11.726 2.822 26.931-9.092 33.664-.04.023-.434-.599-.457-.586 11.635-6.535 18.154-21.531 9.456-33.191a4.08 4.08 0 0 1 .093.113"/><path fill="#393939" d="M177.763 155.132c2.132 21.153 1.61 42.22-1.346 63.277-2.71 19.308-6.036 39.778-15.919 56.888.038-.066-.465-.451-.419-.535 9.639-17.276 13.01-37.637 15.856-56.974 3.04-20.66 4.434-41.925 1.785-62.709.003.019.04.033.043.053m-18.033 118.59c-7.122 6.948-17.867 10.91-27.478 12.667-.081.015-.234-.395-.303-.383 5.043-.91 9.937-2.367 14.61-4.482 4.737-2.143 8.755-5.106 13.09-7.9a.926.926 0 0 1 .08.098m69.116-66.379c.267-.86.044-.777.435-.185.328.494.306 1.746.39 2.336.252 1.748.41 3.507.488 5.27a60.564 60.564 0 0 1-.4 9.968c-.81 6.665-2.648 13.193-5.205 19.395-2.48 6.017-5.14 11.975-10.722 15.666-5.67 3.748-11.635 7.41-18.368 8.798-.165.034-.516-.88-.652-.851 6.387-1.366 11.956-4.709 17.407-8.172 5.975-3.795 8.861-9.176 11.608-15.533 5.222-12.084 7.454-25.246 5.038-38.269.014.078.152.136.173.217.289.519.267 1.025-.065 1.518.01-.032-.139-.12-.127-.158m-12.226 52.358c-4.411 9.353-11.752 17.555-19.667 24.097-.004.003-.384-.467-.374-.475 8.312-6.703 14.359-14.686 20.034-23.63 0 0 .008.007.007.008m-26.92 15.22c-12.9 5.84-26.187 10.945-39.354 16.146-12.657 4.999-25.333 10.446-38.813 12.795-.148.025-.42-.727-.545-.706 13.501-2.309 26.21-7.718 38.897-12.68 13.256-5.185 26.42-10.688 39.781-15.596.006-.002.03.043.034.041m-.167 9.151c-23.31 10.164-48.267 17.196-73.449 20.785-.155.023-.421-.735-.552-.714 25.377-4.175 49.925-10.902 73.908-20.187.015-.005.082.121.093.116m-81.392 19.909c-4.37 1.248-8.815 1.48-13.303.788-.116-.017-.183-.351-.29-.366 4.554.612 8.989.398 13.48-.562.026-.006.091.147.112.14m-27.441-78.497c-.087-.252-.812-1.67-1.029-1.54-.022.014.59 1.439.64 1.566.461 1.183.888 2.381 1.2 3.614.583 2.3.68 4.534-.03 6.812.055-.177-.71-.635-.64-.834.709-2.052.741-4.064.299-6.183-.221-1.057-.552-2.09-.91-3.107a50.111 50.111 0 0 0-.57-1.514c-.433-.745-.453-.928-.06-.55.589.249 1.035 1.28 1.16 1.81-.006-.026-.05-.047-.06-.074m-4.508.681c.57 3.254.348 6.515-.45 9.712.044-.175-.635-.556-.577-.749.928-3.08 1.095-6.116.757-9.304.012.118.248.217.27.341m-3.649-.072c.597 3.161.144 7.19-2.874 8.985-.056.034-.699-.97-.726-.955a6.162 6.162 0 0 0 2.77-3.22c.634-1.655.422-3.322.658-5.026-.008.055.16.153.172.216m-8.17 23.84c.274 1.566.859 2.88 2.222 3.786.21.139.28.482.483.62-1.517-1.032-2.89-2.864-2.969-4.739.005.11.244.216.264.333m8.273 12.676a54.018 54.018 0 0 0-.08-2.777l.535.692c-.172 1.571.085 3.473 1.328 4.571.291.257.429.685.715.938-1.747-1.544-3.056-3.818-2.579-6.2-.035.176.578.496.536.69a26.752 26.752 0 0 0-.369 2.193c.004-.03-.086-.073-.086-.107m16.844.013c.608.211 1.203.49 1.82.67.22.063.294.572.499.64-1.465-.493-2.73-1.438-3.729-2.605-.212-.247-.41-.697-.67-.881a10.26 10.26 0 0 1 2.083 1.968c.23.285.435.715.711.949-.426-.36-.851-.723-1.27-1.093-.301-.266-.441-.73-.745-.98.42.346.833.702 1.246 1.058l.712.95a10.91 10.91 0 0 0-2.052-1.956l-.67-.882c1.074 1.266 2.376 2.16 3.885 2.832l.499.64c-.751-.452-1.537-.85-2.3-1.286-.007-.004-.011-.021-.02-.024m-5.773-1.41c.317 1-.17 2.196-.621 3.089.04-.082-.612-.726-.66-.861a3.197 3.197 0 0 1 .083-2.406l.802 1.062c-.466.748-.96 1.474-1.396 2.242.082-.146-.967-.97-.861-1.146.442-.743.903-1.491 1.455-2.158-.068.082.876.922.802 1.062a2.923 2.923 0 0 0-.225 2.205l-.66-.861a4.48 4.48 0 0 0 .69-1.243c.098-.263.17-1.158.386-1.243.015-.005.196.23.205.258m-10.583 9.114c1.533.444.892-3.295.8-4.016l.627.818c-.81 1.89-1.394 3.78-1.646 5.826.038-.31-.884-.766-.83-1.102.308-1.935.887-3.827 1.848-5.542-.065.116.675.654.628.818-.22.777.056 3.698-1.394 3.24-.014-.006-.02-.038-.033-.042m-1.571 13.045a86.419 86.419 0 0 0-.492-2.231l.472.608c.345 3.475 1.21 6.662 2.947 9.716-.154-.272-.585-.674-.783-1.025-1.607-2.852-2.615-6.008-2.636-9.3 0 .198.455.397.472.609.053.618.12 1.231.198 1.847-.01-.079-.162-.142-.179-.224m15.57 23.031c-.75-1.909-.786-3.466-.332-5.441-.03.128.428.37.404.516-2.235 13.472-5.144 26.606-4.158 40.364-.029-.408-.876-.774-.903-1.207-.482-7.553.106-15.07 1.27-22.538.567-3.636 1.25-7.253 2-10.856.089-.42 1.048-5.063 1.083-5.057.162.03.568 3.838.775 4.393-.024-.065-.113-.107-.14-.174m.045 44.284c.932-.804 1.79-1.65 2.666-2.516l.503.648c-7.799 5.345-17.38 6.619-26.545 7.78-.231.03-.583-1.056-.782-1.033 9.37-1.07 18.647-2.386 26.824-7.395.038-.022.485.659.503.648-1.063.623-2.103 1.233-3.122 1.926a.544.544 0 0 1-.047-.058"/><path fill="#393939" d="M80.336 341.358l.419-1.175c-.025.07.284.266.281.356-.299 10.747-.829 21.367 1.92 31.879-.074-.285-.516-.48-.596-.775-1.385-5.124-1.999-10.349-2.132-15.65-.065-2.54-.027-5.08.066-7.618.054-1.474-.2-6.065.201-6.818.016-.03-.173-.16-.159-.2m26.811-28.482l-.207-1.238c.023.138.267.248.308.39 1.423 4.87 2.62 9.831 5.66 14 2.816 3.86 6.604 5.488 11.118 6.568.316.076.445.902.739.972-4.98-1.18-8.874-3.346-11.935-7.452a24.86 24.86 0 0 1-1.943-3.005c-.954-1.762-1.689-3.636-2.315-5.536-.423-1.282-1.348-3.987-1.339-4.591 0-.034-.08-.072-.086-.108"/><path fill="#393939" d="M118.81 309.643c3.873 8.637 6.046 17.94 6.15 27.412-.002-.23-.537-.46-.546-.706-.323-9.4-2.208-18.407-5.894-27.072.058.136.228.228.29.366m-10.588 15.04c2.439 4.13 4.634 8.394 6.492 12.817-.11-.261-.43-.44-.545-.705-1.864-4.292-3.92-8.462-6.266-12.512.062.107.238.263.319.4m-4.322-.823c2.608 9.862 6.815 18.865 13.68 26.554.238.266.506.709.69.916-7.104-7.947-12.629-17.504-14.795-28.013.04.196.371.34.425.543m107.818-154.89c.075 3.632-.922 7.2.802 10.614-.177-.35-.555-.606-.734-.964-1.407-2.816-.917-6.76-.114-9.708-.004.013.046.042.046.058m-4.728 3.711a43.952 43.952 0 0 1 1.66 4.64l.263.943c.493.927.509 1.212.047.854.017.161-.55-.341.147.818 1.328 2.203 4.553 3.706 6.838 4.59.444.172.578 1.207 1 1.348-4.235-1.413-7.329-4.61-9.554-8.369l-.013-.024c.126.083.822.664.942.628.08-.025-.47-2.036-.506-2.168-.36-1.306-.808-2.578-1.281-3.846.08.217.364.366.457.586"/><path fill="#393939" d="M224.36 164.869l-.27-.492.424.543c-1.891.06-3.89 2.628-5.605 3.575-2.068 1.143-4.501 1.913-6.894 1.677-2.771-.272-3.939-1.802-5.95-3.385-1.312-1.032-2.405-1.664-3.445-2.973-4.035-5.082-5.219-14.014-3.591-20.11-.093.35 1.18 1.079 1.082 1.471-.971 3.911-.494 7.816.203 11.74.27 1.527.55 3.133 1.145 4.576.884 2.143 2.698 3.15 4.336 4.585 2.585 2.266 5.295 3.354 8.777 2.712 1.815-.336 3.502-1.105 5.083-2.037 1.27-.749 2.892-2.498 4.434-2.374.082.006.396.461.425.543l.09.256c-.039-.11-.186-.201-.244-.307"/><path fill="#393939" d="M204.366 143.402c-.072 6.749 1.891 12.8 7.452 17.1.392.302.53.933.916 1.224-5.693-4.298-9.827-11.655-8.82-18.902-.022.162.454.396.452.578m.464-5.047c-4.837 1.82-10.653-4.345-12.963-8.16-4.285-7.08 4.984-14.87 11.248-16.063.3-.057.986 1.742 1.222 1.685-4.99 1.23-9.482 4.395-11.475 9.268-3.07 7.506 5.529 11.768 11.607 12.811.084.014.31.478.361.46"/><path fill="#393939" d="M191.557 126.477c-7.934-2.993-5.068-15.915 2.43-17.671.224-.053.75 1.292.934 1.25-3.126.703-5.458 2.754-6.58 5.77-1.282 3.448-1.206 8.269 2.657 9.928.246.106.323.634.559.723M229.085 17.69c-1.162-1.13-1.826-2.454-2.834-3.702-3.575-4.424-10.585-4.266-15.75-4.734-2.533-.23-5.08-.5-7.534-1.196-2.488-.706-4.663-2.162-7.132-2.884-5.069-1.483-11.367.807-16.391 1.75-.319.059-.96-1.734-1.223-1.685 4.997-.936 11.372-3.22 16.408-1.724 2.476.735 4.669 2.194 7.16 2.927 2.853.84 5.834 1.11 8.782 1.399 4.634.452 10.745.641 14.217 4.217 1.518 1.563 2.46 3.578 3.94 5.17.12.132.258.365.357.461"/><path fill="#393939" d="M185.997.266c.045-.145.102-.172.173-.08.062.05.512.589.486.626-.93 1.342-4.023 1.967-5.53 2.512-1.835.665-4.027 1.05-5.511 2.386-1.288 1.158-1.511 2.012-3.407 2.112-2.247.119-4.45-.613-6.43-1.595-.521-.259-.642-1.316-1.14-1.56 1.862.907 3.8 1.564 5.894 1.611 2.226.051 2.477-.68 4.033-1.99 3.011-2.53 8.18-2.201 11.605-4.103l.45.587-.36-.173c-.022.005-.266-.329-.263-.333M164.16 5.545c-2.74-2.509-6.45-2.634-9.986-2.537-5.284.145-10.565.518-15.847.721-2.61.1-5.218.196-7.826.295-2.087.079-4.166-.242-5.824 1.14-3.92 3.262-6.867 7.967-10.495 11.569.057-.058-1.131-1.298-1.042-1.41 1.727-2.152 3.642-4.163 5.485-6.216 1.565-1.742 3.125-3.981 4.933-5.47 1.76-1.447 4.314-1.057 6.5-1.128 2.618-.085 5.235-.174 7.852-.254 5.136-.156 10.285-.35 15.423-.365 3.993-.011 7.824.447 10.684 3.475.05.055.088.13.142.18m67.26 34.688c2.983.675 6.079 1.193 9.017 2.045.839.244 1.49.425 2.147 1.017 1.477 1.332 1.094 2.895.676 4.698-1.254 5.405-2.665 10.78-4.009 16.165-.656 2.627-1.207 5.26-3.005 7.37-1.365 1.602-3.11 3.022-4.803 4.25-4.394 3.188-9.082 1.88-13.859.287-2.999-1.001-5.711-2.285-7.696-4.805-5.202-6.601-2.906-14.16.054-21.296-.116.28 1.252 1.2 1.118 1.524-2.348 5.662-5.5 13.3-1.415 18.898 1.886 2.583 4.864 3.56 7.825 4.507 3.114.995 6.608 2.136 9.862 1.089 5.217-1.68 9.275-6.827 10.645-11.878.94-3.464 1.817-6.947 2.725-10.42.622-2.38 3.333-8.267 1.813-10.456l.693.902c-2.926-2.045-7.836-2.361-11.261-3.217-.224-.056-.32-.633-.527-.68"/><path fill="#393939" d="M222.914 54.614c-1.668 8.364-10.356 10.596-17.564 12.194-4.833 1.071-8.853.621-11.7-3.62-2.63-3.918-2.697-8.852-5.308-12.837-.587-.896-1.364-1.811-1.129-2.96.343-1.671 2.878-2.72 4.231-3.484 3.605-2.037 7.474-3.437 11.507-4.344.272-.061.91 1.592 1.13 1.542-3.109.714-6.126 1.698-9.01 3.065-2.081.988-6.97 2.832-6.719 5.59.112 1.229 1.863 3.041 2.447 4.217 1.048 2.112 1.426 4.471 2.118 6.705 2.185 7.059 9.648 5.437 15.381 4.23 6.147-1.296 12.69-4.092 14.21-10.817-.03.13.435.373.406.519m-49.771 8.741c5.349-4.774 12.104.492 15.114 5.331 5.932 9.539 1.241 20.558-3.672 29.385-.217.39-.55 1.33-.9 1.599-.737.564-.85.28-1.898.262-1.339-.025-2.586.518-3.795 1.036-2.473 1.06-4.82 2.161-7.508 2.588-2.326.369-4.744.29-6.92-.69-2.223-1.002-3.848-3.427-6.255-3.995-2.485-.586-4.765 1.285-7.335.616-1.717-.447-2.91-1.583-3.993-2.912-1.566-1.921-2.683-4.134-3.826-6.318l-2.652-5.067c-.64-1.222-1.746-2.71-1.85-4.123-.171-2.31 2.03-4.871 3.634-6.275 5.016-4.388 12.022-4.518 18.328-4.566.407-.004.805 1.597 1.164 1.595-5.713.04-11.866.102-16.798 3.387-1.853 1.234-3.477 2.877-4.464 4.89-1.459 2.969.349 5.157 1.738 7.81 1.453 2.775 2.64 6.58 5.012 8.649 1.994 1.74 4.224 1.625 6.597 1.076 3.465-.8 4.681.332 7.39 2.32 1.95 1.43 4.056 2.182 6.502 2.212 2.432.03 4.86-.61 7.112-1.484 1.365-.53 2.645-1.288 4.026-1.773a8.433 8.433 0 0 1 2.186-.572 4.348 4.348 0 0 1 2.15.288c.663-.31 1.494-2.586 1.82-3.169.794-1.42 1.573-2.85 2.286-4.312 1.233-2.526 2.314-5.146 2.992-7.88 1.242-5.012 1.09-10.795-1.69-15.32-2.99-4.872-9.207-6.91-14.349-4.406-.01.005-.146-.183-.146-.182"/><path fill="#393939" d="M174.87 68.941c-.096.679.44 2.077.559 2.837.24 1.54.36 3.101.374 4.659a33.535 33.535 0 0 1-1.203 9.187c-.619 2.247-1.31 6.436-4.235 5.96-1.542-.25-2.345-1.087-4.097-.816-1.31.201-2.489.836-3.643 1.444-2.015 1.063-3.874 2.89-5.145.4-.95-1.858-1.02-4.419-1.665-6.438-1.098-3.444-2.68-6.666-4.606-9.722.227.36.748.934 1.04 1.395 1.515 2.4 2.832 4.881 3.854 7.533 1.06 2.753 1.257 5.886 2.363 8.553l-1.05-1.424c2.151.62 5.566-2.733 7.86-3.077.975-.145 1.818-.096 2.736.213.73.246 1.577 1.017 2.38.942 1.446-.135 2.069-2.225 2.496-3.29a32.101 32.101 0 0 0 2.243-9.945 32.325 32.325 0 0 0-.07-5.087c-.05-.533-.61-3.732-.173-3.453.023.015.185.219.18.224l-.066.071c.008-.009-.136-.142-.132-.166m9.994 31.755a1.51 1.51 0 0 1 1.178-.366c.041-.003.436.518.424.542-2.475 4.994-9.906 5.823-14.881 5.928-5.948.126-11.712-1.357-16.939-4.157-.45-.241-.558-1.096-.987-1.33 5.27 2.87 11.098 4.45 17.12 4.42 5.084-.026 12.268-.701 15.263-5.403l.424.542a2.043 2.043 0 0 0-1.496-.044c-.019.004-.095-.138-.106-.132"/><path fill="#393939" d="M187.777 108.71l.365.15c.062.026.297.319.302.383.198 2.311-3.174 4.517-4.895 5.64-2.386 1.555-5.104 2.591-7.895 3.142-6.503 1.281-13.378-.058-19.42-2.588-7.183-3.009-13.875-9.26-14.614-17.407.044.48.986.894 1.035 1.4 1.065 10.984 12.853 16.104 22.528 17.59 4.632.711 9.444.509 13.871-1.111.916-.335 10.68-5.898 8.929-6.94-.084-.05-.12-.224-.206-.258m-37.171-50.937c-7.849 2.805-15.018 6.368-19.582 13.729-2.224 3.586-3.274 7.76-1.693 11.812 1.987 5.093 7.698 7.65 12.255 9.978.447.228.558 1.118.988 1.329-6.258-3.066-14.638-8.134-14.961-16.145-.435-10.756 13.13-20.078 22.749-21.01.058-.006.203.322.244.307"/><path fill="#393939" d="M135.67 76.737c-9.28 2.512-9.389-10.726-7.886-16.139l.806 1.068c-2.254 7.152-2.94 12.994 1.81 19.318.445.592.167.263-.122-.121-1.396-1.851-2.802-3.735-3.632-5.92-1.795-4.725-.253-9.74 1.138-14.345-.073.24.878.794.806 1.068-1.13 4.262-1.384 8.987.567 13.058l-.436-.591c1.612 2.08 4.169 2.416 6.614 2.179.089-.009.268.443.336.425m-11.815-6c-2.178 6.504 1.485 12.173 5.475 17.13.159.196.677.91.644.869-4.302-5.326-9.256-11.512-6.715-18.773-.055.157.657.592.596.774"/><path fill="#393939" d="M122.424 78.89c-3.616 10.89 12.547 16.985 20.562 19.1.38.1.52 1.068.874 1.163-7.715-2.07-26.028-9.345-21.849-20.79-.038.104.453.404.413.527m11.564-21.501c-1.087 4.774-7.17 8.755-11.2 4.583-.247-.256-.498-.718-.69-.916 1.797 1.847 4.497 2.35 6.884 1.392 2.468-.989 3.595-3.098 4.847-5.258-.015.026.168.16.159.199"/><path fill="#393939" d="M121.133 55.594a27.15 27.15 0 0 0 1.578-1.065c.004-.004.273.327.288.365 1.011 2.59-.722 5.175-.391 7.827l-.626-.814c1.216-.219 2.234-.635 3.207-1.406l.606.79a8.48 8.48 0 0 0-2.727-.923c-.21-.034-.33-.646-.52-.67a8.04 8.04 0 0 1 2.64.803c.085.043.614.784.607.79-.919.832-1.944 1.32-3.187 1.43-.073.007-.619-.727-.626-.814-.185-2.516 1.544-4.889.729-7.378l.288.365c-.597.26-1.18.533-1.76.832-.01.006-.1-.135-.106-.132m-1.712 4.155c1.674 2.36.135 5.848-2.951 5.501-.177-.02-.298-.574-.457-.586 2.813.21 4.966-2.668 3.222-5.146.042.06.132.155.186.23m-3.077 3.776c-2.757 5.077-7.23 8.737-12.773 10.398-.115.034-.44-.713-.534-.689 5.56-1.47 10.217-4.94 13.18-9.866-.01.018.14.134.127.157m-11.699 6.126c-7.699 4.122-16.318 7.143-25.15 5.917-.394-.054-.61-1.252-.97-1.303 9.065 1.304 17.4-1.624 25.493-5.431.072-.034.586.84.627.817"/><path fill="#393939" d="M79.78 72.243c.41-.478.913-.736 1.466-1.017.009-.004.64.746.616.8-1.03 2.352-3.126 4.095-5.542 4.896-.172.057-.728-1.194-.867-1.155 2.538-.71 4.435-2.318 5.793-4.54l.616.8c-.643.11-1.14.392-1.708.692-.014.007-.384-.464-.374-.476"/><path fill="#393939" d="M80.409 78.582c-2.233.19-5.617-2.053-7.532-2.987-2.83-1.381-5.615-2.58-8.662-3.405-.282-.076-.414-.836-.677-.886 6.226 1.183 11.602 5.321 17.65 7.211.058.018.097.181.15.187l-.916-.104c-.005 0-.01-.016-.013-.016M63.43 69.48c1.584-.578 2.238-5.31 2.746-6.866.892-2.73 1.786-5.46 2.696-8.183-.087.26 1.03.948.927 1.242-.933 2.666-1.882 5.325-2.834 7.984-.516 1.443-1.424 6.252-3.09 6.392-.106.009-.373-.596-.445-.57m7.424-16.645c11.366-4.959 24.07-5.397 34.92-11.833.059-.035.79 1.09.813 1.076-10.562 6.367-23.576 8.03-35.314 11.292-.078.022-.367-.557-.42-.535m51.908 31.954c-.286 0-.558-1.076-.813-1.076.287 0 .56 1.076.813 1.076"/><path fill="#393939" d="M122.529 84.372c-2.977.943-5.854 2.044-8.586 3.57-2.717 1.516-5.085 3.649-7.993 4.791-.105.042-.592-.898-.665-.868 2.9-1.21 5.327-3.189 8.089-4.66a39.432 39.432 0 0 1 8.724-3.385c.094-.024.359.575.431.552"/><path fill="#393939" d="M113.214 89.324c-.002-.13.055-.151.17-.064.066.02.49.608.481.618-1.492 1.739-6.315 2.313-8.5 2.741-3.23.635-6.501.869-9.79.857-.304-.002-.578-1.122-.85-1.129 3.336.079 6.638-.109 9.932-.658 2.353-.393 6.943-.758 8.727-2.429l.481.618c-.113-.1-.175-.087-.188.041.045-.115-.504-.456-.463-.595m-17.73 2.391c-3.644-1.996-7.175-4.221-10.591-6.583-.317-.218-.419-.745-.727-.955 3.574 2.433 7.21 4.747 10.899 7.003.18.11.24.437.419.535m-15.71-9.465c5.171-2.789 10.875-4.787 16.532-6.328.178-.048.673 1.116.813 1.077-5.775 1.622-11.264 3.723-16.844 5.896-.068.027-.462-.667-.501-.646m4.676 3.88c-4.533-.934-8.257 1.435-11.412 4.486-2.616 2.53-6.572 8.156-10.773 6.952-.399-.114-.542-1.126-.916-1.225 4.246 1.128 8.202-4.239 10.916-6.747 3.218-2.974 7.308-5.489 11.791-3.968.162.055.24.47.394.502"/><path fill="#393939" d="M64.405 95.369c-4.677.883-9.623-1.923-13.498-4.29-3.671-2.243-6.935-5-9.854-8.15-.313-.338-.637-.933-.882-1.194 5.667 6.052 14.88 13.46 23.689 12.928.16-.01.416.73.545.706M36.08 57.272c-.296-.927-.63-1.79-1.024-2.682l.502.646c.475 6.821.975 13.683 4.728 19.612-.188-.297-.626-.763-.867-1.142-3.63-5.743-4.152-12.484-4.363-19.116.006.196.433.445.502.646.277.813.561 1.623.838 2.436-.05-.149-.266-.246-.316-.4M59.479 96.78l.182-.08c.021-.01.32.379.334.423.35 1.095-2.53.13-2.888.062-1.85-.352-3.695-.712-5.563-.951-4.046-.518-7.721-.276-11.685.584-3.01.654-4.807-1.906-6.81-3.917-2.545-2.557-4.893-5.288-7.102-8.138a47.082 47.082 0 0 1-.98-1.374 89.019 89.019 0 0 0 8.25 9.242c.965.937 2.076 2.339 3.35 2.841 1.458.574 3.275-.283 4.757-.5 6.336-.923 12.483 1.15 18.393 2.107-.052-.01-.21-.312-.238-.3"/><path fill="#393939" d="M26.813 84.185c-.144.889-2.664-2.879-2.764-3.062-1.45-2.65-1.919-5.709-1.803-8.697.14-3.591 1.482-7.036 1.23-10.637.034.486 1.025.922 1.059 1.436.233 3.515-1.205 6.873-1.408 10.376-.087 1.512-.03 3.049.253 4.54.247 1.302 1.73 6 3.202 5.753.02-.003.235.267.23.29M22.43 65.209l-.554-.764.57.732c-.81 6.743-2.492 13.705-5.475 19.837.101-.208-1.049-1.012-.946-1.269 2.55-6.366 4.64-12.579 5.814-19.357-.02.114.489.62.57.732l.382.54c.017.023-.28-.34-.361-.451m-4.6 6.129c-.115-2.398-.813 1.661-.97 2.26a92.137 92.137 0 0 0-1.012 4.317c-.65 3.1-1.108 6.222-1.5 9.363.04-.326-.907-.792-.862-1.146.735-5.686 2.04-11.336 3.978-16.735-.033.094.399.402.412.526.106.477.093.95-.04 1.423 0-.002-.006-.006-.006-.008"/><path fill="#393939" d="M16.735 72.252a7.711 7.711 0 0 0-1.52-1.014c-.774-.528-1.162-.244-1.164.85-.597.824-.853 2.283-1.128 3.23a31.584 31.584 0 0 0-1.206 7.27c-.25 5.133.832 10.138 3.012 14.779-.201-.428-.673-.737-.88-1.172-2.17-4.57-3.186-9.477-2.842-14.539a27.492 27.492 0 0 1 1.395-7.012c.278-.817.622-2.395 1.269-3.04.227-1.097.725-1.239 1.493-.428.556.288 1.07.635 1.545 1.043.01.009.015.025.026.033M8.41 81.354a2.47 2.47 0 0 0 1.175-.455c.005-.003.665.769.648.846-1.057 4.996-2.556 9.91-4.155 14.757-.585 1.776-2.229 4.565-1.945 6.486.366 2.48 4.156 4.772 6.088 6.012.54.347.678 1.333 1.205 1.657-2.877-1.768-6.968-5.09-8.243-8.514-.893-2.398 1.64-6.557 2.432-8.872 1.403-4.1 2.609-8.26 3.97-12.372l.648.846a4.443 4.443 0 0 0-1.54-.033c-.077.006-.223-.373-.283-.358"/><path fill="#393939" d="M6.016 99.446c.043-.096.086-.193.13-.288l.53.685c-.678-.612-1.25 1.92-1.485 2.417-.833 1.758-2.15 2.96-3.227 4.522-1.931 2.804.997 7.919 2.446 10.51 2.114 3.78 5.374 7.727 9.645 9.098 4.568 1.466 9.314 2.471 13.925 3.803.488.141.667 1.42 1.124 1.533-3.432-.846-6.842-1.766-10.254-2.684-2.517-.677-5.02-1.171-7.12-2.805-2.289-1.78-4.149-4.123-5.842-6.452-2.19-3.013-3.969-6.247-5.085-9.816-.914-2.926-.766-3.444 1.244-5.486a14.564 14.564 0 0 0 2.38-3.23c.431-.787.606-1.942 1.414-2.404a.226.226 0 0 0 .013.013l.303.307c.05.05.535.661.52.674l-.21.18c.02-.016-.478-.519-.451-.577m5.328 28.519c3.583 5.816 7.575 11.342 12.163 16.415 1.59 1.758 3.04 3.857 5.438 4.362 2.539.535 5.413.46 7.996.693.489.044.824 1.713 1.263 1.747-3.4-.26-8.024.295-10.656-2.09-2.797-2.535-5.238-5.705-7.57-8.657-3.302-4.18-6.39-8.527-9.127-13.098.1.166.362.415.493.628m179.418 2.642c-.552-.955.222-1.616-.293-2.057-.637-.546-4.957.057-5.75.064-3.636.03-7.273.038-10.91.055-.318.002-.611-1.191-.896-1.198 6.124.138 12.291.098 18.403.516.08.005.348.514.388.494-1.075.544-1.481 1.154-.836 2.258-.028-.048-.078-.084-.106-.132m-8.183 10.823c-4.413-3.37-8.667-6.906-13.212-10.11-.276-.196-.37-.644-.64-.835 4.68 3.33 9.34 6.786 13.608 10.637.094.084.145.232.244.307M158.086 14.926c-4.971 2.374-10.213 4.069-15.583 5.272-.1.022-.317-.528-.4-.51 5.439-1.17 10.61-2.922 15.726-5.087.036-.015.232.336.257.325m-24.098 26.697c-11.791-4.59-23.743-9-35.436-13.82-.311-.129-.42-.851-.72-.946 12.192 3.854 24.381 9.152 35.97 14.533.08.038.109.202.186.233M118.19 27.161c-4.954-1.024-9.87-2.258-14.796-3.406-.266-.061-.373-.745-.62-.808 5.043 1.27 10.112 2.464 15.126 3.848.12.033.176.343.29.366m-3.919 9.274c-3.229 2.305-7.133 3.284-11.07 3.084-.251-.013-.438-.85-.665-.869 4.107.322 7.8-.67 11.348-2.708.027-.015.38.498.387.493m-8.108-20.909c.418.034.828-.01 1.229-.131l.503.648c-8.65-.161-16.79.873-25.282 2.48C74.215 20.11 65.73 21.7 57.16 20.679c-.226-.026-1.028-1.597-1.13-1.544.54-.278 1.08-.558 1.619-.842.1-.052 1.051 1.525 1.1 1.498-.531.293-1.061.59-1.589.888l-1.13-1.544c8.641.897 17.093-.439 25.586-1.954 8.37-1.494 17.283-3.33 25.775-1.786.212.039.307.601.503.648a6.598 6.598 0 0 0-1.54-.276c-.069-.008-.131-.242-.192-.24"/><path fill="#393939" d="M57.208 19.99c-1.03 3.43-3.678 6.688-5.714 9.628-1.6 2.31-3.89 6.737-6.403 7.984-.041.02-1.008-1.26-1.038-1.405-.1-.158-.068-.237.098-.236.058-.017 1.073 1.308 1.05 1.42-.969 4.704-.325 9.217 2.095 13.394-.203-.351-.736-.885-1-1.336-2.436-4.175-3.227-8.741-2.145-13.478l1.05 1.42c-.166-.01-.203.062-.11.22-.347-.467-.692-.936-1.038-1.404 2.477-1.051 5-5.558 6.581-7.724 2.006-2.749 3.73-6.618 6.415-8.682-.004.004.165.179.159.2M41.861 41.748c-1.303.034-1.074 2.21-1.427 3.385a19.614 19.614 0 0 1-1.792 4.152c-.671 1.16-2.111 2.467-2.14 3.886-.049 2.424 2.94 4.667 4.58 6.065.483.413.672 1.165 1.146 1.568-2.144-1.828-3.983-3.943-5.545-6.286-1.786-2.679-.9-3.39.808-5.887a18.614 18.614 0 0 0 2.042-3.909c.26-.69.474-1.385.656-2.1.281-1.093-.074-1.664 1.247-1.417.15.028.294.547.425.543m-.718-5.791l-.266-1.518.684.895c-4.18 5.44-8.479 10.907-12.991 16.076-1.448 1.658-4.426 3.214-4.637 5.58-.247 2.767 1.73 6.29 2.932 8.667-.318-.63-.943-1.118-1.268-1.756-1.21-2.379-3.227-5.931-2.96-8.71.23-2.4 3.221-3.815 4.781-5.356 4.83-4.769 8.892-10.374 13.46-15.396-.052.057.731.776.683.895l-.312.756c.008-.02-.101-.105-.106-.133M28.561 69.329c-.116-.131-.098-.233.052-.304-.026.025.636.725.639.833.034 1.248-1.358 2.578-2.156 3.514-1.51 1.771-1.369 1.5-.29 3.694 1.772 3.605 3.529 7.218 5.291 10.828-.295-.605-.916-1.06-1.216-1.675-1.75-3.586-3.507-7.168-5.247-10.759-.796-1.642-1.118-1.737.12-3.047.988-1.045 2.211-2.092 2.86-3.388l.638.833c-.17-.105-.253-.093-.247.04.018-.124-.392-.433-.444-.57m15.533.716a13.746 13.746 0 0 0-.3-1.677c.057.271.489.502.595.773 2.625 6.69 8.575 10.642 13.368 15.66.314.328.628.922.87 1.177-5.25-5.508-12.138-10.167-14.832-17.61l.594.773a5.56 5.56 0 0 0-.005 1.27c-.006-.122-.271-.236-.29-.366m.353-6.811a6.62 6.62 0 0 0 .723-1.786c-.04.121.505.538.538.695 1.756 8.34 5.73 15.616 12.559 20.914.403.313.547.952.94 1.259-7.145-5.598-12.62-13.83-14.037-22.868l.538.695c-.49.284-.91.65-1.255 1.099l-.006-.008m.182 21.098c-1.105-1.184.295.038.833.39a65.73 65.73 0 0 0 3.365 2.028 98.3 98.3 0 0 0 6.66 3.451c.41.194.512 1.023.903 1.207-3.779-1.78-7.725-3.76-11.057-6.302-.971-.741-1.675-1.616-2.325-2.629-.013-.019-.012-.02.004-.002.503.581 1.01 1.16 1.521 1.736.031.036.07.094.096.121m-8.855-9.092c-.546-.981-.803-1.962-1.086-3.04l.794 1.05c.243 2.404.536 4.796 1.083 7.151l-1.136-1.551a42.595 42.595 0 0 0 9.006 2.44c.493.077.743 1.568 1.194 1.64a41.198 41.198 0 0 1-9.064-2.529c-.257-.104-1.1-1.282-1.136-1.551-.294-2.216-.626-4.414-.741-6.65.015.31.854.731.794 1.05-.16.851.232 1.666.62 2.407-.08-.152-.243-.264-.328-.417M161.645 180.73c-12.968 5.128-27.988 4.671-41.004.04-.211-.075-.278-.54-.476-.611 13.636 4.85 27.53 4.475 41.255.288.042-.013.194.294.225.282m-27.915 6.363c-13.383 1.103-26.844-.852-39.508-5.242-.176-.061-.233-.452-.4-.51 12.871 4.504 26.226 6.233 39.828 5.653.026-.002.057.1.08.099m-22.507 28.224l.004-.223c0 .016.04.033.04.05 0 .077.002.154.003.23 0-.018-.047-.038-.047-.057m-.208 5.26c-.119 5.206-1.922 10.074-5.027 14.234.022-.028-.354-.368-.323-.408 3.202-4.101 4.873-8.715 5.31-13.876-.001.015.04.034.04.05m-3.699 5.567c-.503 2.63-1.644 5.115-3.127 7.333.03-.045-.414-.417-.373-.476 1.508-2.234 2.487-4.588 3.262-7.157-.02.068.253.22.238.3m-44.857 1.74c-.286 0-.558-1.076-.813-1.076.287 0 .56 1.076.813 1.076"/><path fill="#393939" d="M62.185 227.51a19.14 19.14 0 0 1-4.305-1.806c-.118-.068-.155-.276-.27-.342a19.157 19.157 0 0 0 4.31 1.816c.114.033.158.303.265.333m9.533 55.707a77.656 77.656 0 0 1-.249-3.13c.027.388.784.75.867 1.155 1.135 5.522 1.925 12.072 5.858 16.429.417.462.845 1.27 1.17 1.63-4.89-5.415-6.917-12.054-7.895-19.214l.867 1.155c-.153.698-.333 1.39-.538 2.074.006-.021-.078-.073-.08-.1"/><g transform="matrix(-1 0 0 1 59.643 353.658)"><mask id="b" fill="#fff"><use xlink:href="#a"/></mask><path fill="#393939" d="M.623 1.423c5.616-.349 11.193-.667 16.79.138 4.9.704 9.617 2.28 14.191 4.128 9.064 3.662 17.79 8.47 27.542 10.074.19.031.544-.95.702-.92-9.763-1.815-18.482-6.33-27.643-9.935C21.978.886 11.835-.306.913 1.058c-.11.013-.19.36-.29.365" mask="url(#b)"/></g><path fill="#393939" d="M112.513 246.208c-5.049 1.357-10.755 1.06-15.898.429-2.156-.265-4.508-1.144-6.665-1.02-2.342.134-4.847 1.38-7.084 2.003-.207.057-.85-1.406-1.005-1.357 2.054-.658 4.543-1.749 6.712-1.927 2.283-.189 4.825.726 7.098 1.034 5.556.755 11.004.44 16.578.505.072 0 .21.347.264.333m-26.415-8.101l-.07-.188.22.278c-.27-.245-.288.347-.326.533a6.44 6.44 0 0 0-.142 1.327c.004.859.205 1.674.55 2.457-.128-.292-.481-.49-.609-.791-.295-.698-.467-1.423-.458-2.184.004-.312.07-1.834.415-1.897.204-.037.56.496.592.681-.013-.074-.143-.141-.172-.216"/></g></svg>