<svg xmlns="http://www.w3.org/2000/svg" width="258" height="396" viewBox="0 0 258 396"><g fill="none" fill-rule="evenodd"><path fill="#000" d="M140.957 41.782c-3.134-1.341-6.683-.894-9.843.174-5.185 1.752-8.409 6.91-10.124 11.83-1.048 3.005-1.536 6.227-1.13 9.397.304 2.373.7 5.189 1.932 7.28 1.353 2.298 4.115 3.11 6.502 3.903 3.234 1.074 6.627.777 9.96.441.3-.03.585-.206.883-.236-4.924.496-10.462.523-14.72-2.47-3.344-2.35-3.975-8.583-3.8-12.317.436-9.26 8.46-22.473 19.457-17.765.224.096.668-.33.883-.237"/><path fill="#000" d="M143.52 43.325c10.32 5.36 6.152 18.899.668 26.168-3.085 4.089-6.398 7.843-8.115 12.759-1.72 4.923-1.956 10.188-.825 15.264-.001-.005.889-.216.884-.235-1.103-4.95-.91-10.085.7-14.909 1.694-5.074 5.074-8.92 8.24-13.116 5.483-7.269 9.652-20.807-.668-26.168-.203-.106-.69.338-.884.237m-8.688-2.65c-5.062.109-9.819 2.63-12.844 6.692-5.324 7.149-4.971 16.563-4.453 24.998-.003-.054.888-.169.884-.237-.407-6.623-.729-13.484 1.658-19.807 2.222-5.884 7.19-11.266 13.87-11.41.298-.006.59-.23.885-.236"/><path fill="#000" d="M119.176 68.55c1.305 6.507-.375 13.146-4.62 18.254.156-.188.723-.042.884-.236 4.244-5.108 5.924-11.747 4.62-18.255.003.013-.89.211-.884.237"/><path fill="#000" d="M117.003 75.684a8.536 8.536 0 0 1-1.86 4.405c.152-.188.726-.042.884-.237a8.536 8.536 0 0 0 1.86-4.404c-.013.106-.87.118-.884.236m1.054-24.046c-.923-.025-1.684-.391-2.565-.022-1.894.793.011 4.104-1.383 4.497l.824-.218c-.58-.722-.23-1.043-1.324-.965-.172.012-.573.092-.715.193-.342.245-.42.168-.596.583-.075.474.026.91.303 1.304.538.353.562.66.07.918-.281 1.069-.723 2.797-1.656 3.462l.867-.234c-1.302.26-2.595-.383-3.86.141-.584.242-1.006.445-.87 1.154.144.755 1.01.794 1.594.956l.562.096c.658.04.714.276.17.707-.003.745.265 1.191.303 1.882.043.774-.513 1.18-.793 1.817-.463 1.053-.614 2.547.882 2.725.575.069 1.565-.438 2.061-.615l-.883.236c.521.055.733.11.805.642 0 0 .15-.037.13-.031 1.35-.346.378 3.263 1.093 3.639.353.185.456.012.774-.02 1.364-.142 2.412-1.811 3.262-2.686-.18.184-.7.046-.884.236-.827.851-1.666 2.057-2.762 2.548l.884-.236c-1.156-.232-.73-3.026-.754-3.907l-.13.032c-.474.121-1.281-.38-1.86-.37-.39.006-1.63.499-1.692.517l.824-.218c-1.23-.262-1.43-1.329-1.007-2.407.198-.504.742-.983.851-1.506.173-.835-.354-1.09-.346-1.891.007-.63.571-.867.22-1.238-.287-.301-1.005-.143-1.388-.29-1.089-.417-1.544-1.41-.29-1.97l-.884.236c1.248-.212 2.76.546 3.967-.17.983-.584.928-1.617 1.277-2.587.086-.32.225-.617.416-.887.493-.258.469-.564-.069-.918-.129-.843-.662-1.3.255-1.874l-.884.236c.992-.172.738.43 1.193.996.043.053.739-.193.824-.218 1.644-.463-.508-3.666 1.409-4.505l-.884.236c.617.048 1.156.214 1.775.23.294.007.594-.244.884-.236m24.613 19.646c.171 1.97 2.128 2.294 3.623 1.523 1.365-.704 2.38-2.668 3.059-3.971.694-1.334 1.592-3.445-.246-4.278-.218-.1-.673.331-.883.236 3.144 1.425-1.23 7.69-3.276 8.413l.884-.236c-1.33.105-2.162-.594-2.278-1.923.004.046-.89.177-.884.236"/><path fill="#000" d="M150.51 58.133c-1.774 3.596 1.415 7.072.931 10.796-.476 3.66-3.096 6.465-5.71 8.846.049-.045.17-.013.221-.06 2.615-2.382 5.234-5.182 5.71-8.845.485-3.73-2.707-7.196-.93-10.797-.022.044-.198.013-.221.06"/><path fill="#000" d="M149.945 59.097c-.568 2.096.04 3.45.523 5.447.462 1.912-.428 3.587-1.344 5.216.026-.046.194-.012.22-.06.916-1.628 1.807-3.303 1.345-5.216-.482-1.997-1.09-3.35-.524-5.446-.009.036-.21.021-.22.06"/><path fill="#000" d="M151.04 65.697a7.167 7.167 0 0 1-3.274 6.78c.06-.039.16-.02.221-.059 2.301-1.49 3.54-4.056 3.274-6.78.002.01-.223.046-.22.06m-39.669 21.878c-.94-.094-1.928.149-2.776.582-1.622.826-3.082 2.326-4.483 3.46a268.1 268.1 0 0 0-4.626 3.828c-5.41 4.584-12.092 9.632-13.43 17.037-.71 3.938-.51 8.114-.552 12.101-.048 4.483-.006 8.968.125 13.449a347.19 347.19 0 0 0 1.745 25.94c-.005-.042.89-.183.884-.237-1.583-15.163-2.192-30.423-1.747-45.664.098-3.355.222-6.69 1.693-9.776 1.305-2.74 3.338-5.05 5.498-7.152 2.54-2.472 5.262-4.769 7.98-7.039 2.58-2.154 5.334-5.072 8.41-6.461l-.868.233 1.263-.064c.286.028.603-.265.884-.237"/><path fill="#000" d="M87.531 107.801c-1.198 1.846 1.464 2.107 2.681 1.868.964-.189 2.203-.604 3.004.229.839.872.593 2.853.655 3.938.078 1.336-.362 2.82 1.154 2.721.496-.032 1.05-.36 1.468-.56l-.867.233c.9-.192.592.635.61 1.232.019.647.08 1.29.192 1.93.224 1.286.658 2.496 1.202 3.678.002.005.836-.183.883-.236.784-.887 1.683-2.43 2.774-2.913l-.884.236c1.263.392 1.277 1.896 3.003 1.853.379-.01.669-.107 1.024-.19 2.414-.567 3.307-2.579 4.039-4.788l-.884.237c1.819 2.86 4.56 2.424 7.236 1.495l-.868.23c2.718-.422 5.544 3.162 6.958 5.093.069.094.823-.32.884-.237-1.437-1.961-4.222-5.457-6.967-5.09-.658.088-1.34.394-1.947.622l.823-.222c-2.124.529-4.079-.31-5.235-2.128-.008-.013-.87.193-.884.237-.63 1.905-1.388 4.052-3.528 4.642l.756-.198c-1.67.193-1.865-.416-2.9-1.358-.444-.405-.414-.37-.899-.366-1.473.016-2.585 2.176-3.384 3.081l.883-.236c-.655-1.426-1.13-2.882-1.314-4.447-.026-.229.098-2.198-.07-2.325-.402-.305-.213-.016-.675-.057-.465-.041-1.25.423-1.603.596l.867-.234c-1.721.409-.135-6.473-2.435-7.133-.843-.243-1.791.118-2.635.245-1.145.173-3.319-.242-2.233-1.915-.12.187-.758.043-.884.237m34.102 18.487c.296 0 .59-.237.884-.237-.297 0-.591.237-.884.237"/><path fill="#000" d="M133.62 102.324l-10.044 5.719c-1.545.88-3.093 1.755-4.636 2.64-1.461.837-2.94 1.555-3.144 3.417-.32 2.936 2.636 5.761 4.422 7.777 2.227 2.514 4.705 4.727 7.582 6.477.184.112.708-.343.884-.237-2.874-1.747-5.36-3.96-7.582-6.476-1.785-2.02-4.743-4.837-4.422-7.778.204-1.863 1.667-2.568 3.144-3.417 1.541-.886 3.09-1.76 4.636-2.64l10.044-5.719c-.254.145-.626.09-.884.237m-17.017-9.552c1.82-.096 4.11.19 5.842-.582.96-.429 1.59-1.307 2.257-2.1 1.37-1.627 2.604-3.35 3.75-5.14-.119.186-.76.044-.884.237-1.541 2.406-3.396 5.61-5.834 7.189l.754-.205c-1.566.406-3.395.28-5.001.365-.3.016-.587.22-.884.236m-2.97-5.522a16.55 16.55 0 0 0 .212 4.11c-.004-.018.89-.203.884-.236a16.593 16.593 0 0 1-.213-4.11c-.006.092-.876.13-.883.236"/><path fill="#000" d="M118.542 160.806c-4.047-9.66 5.849-18.835 10.518-26.306 5.517-8.827 7.847-11.679 6.396-22.25.004.03-.89.191-.884.236 1.451 10.572-.879 13.423-6.396 22.25-4.67 7.472-14.564 16.645-10.518 26.307.018.044.871-.268.884-.237"/><path fill="#000" d="M132.598 120.406a167.28 167.28 0 0 0 48.06 4.817c.298-.014.588-.223.884-.237a167.248 167.248 0 0 1-48.06-4.817c-.262-.065-.629.3-.884.237m46.445 6.824c16.195-.097 32.376-.9 48.502-2.406.3-.028.585-.208.884-.236a557.474 557.474 0 0 1-48.503 2.405c-.296.002-.59.235-.883.237"/><path fill="#000" d="M226.013 124.488c-.707 4.008 2.79 6.292 4.194 9.625.814 1.928.381 3.428.131 5.395-.152 1.193-.046 1.993 1.331 1.93 1.115-.052 2.169-1.012 2.765-1.835 2.28-3.14.991-7.096-.726-10.142-.04-.072-.85.296-.884.235 2.03 3.602 3.415 9.436-1.215 11.756l.884-.237c-2.185.052-1.06-2.219-.884-3.468.242-1.711-.16-3.33-1.011-4.823-1.607-2.818-4.327-5.125-3.7-8.673-.022.12-.86.104-.885.237m-87.75-24.408c18.958.922 33.962 15.635 52.93 16.5.292.014.596-.249.884-.236-18.968-.866-33.972-15.579-52.93-16.5-.292-.014-.596.25-.884.236"/><path fill="#000" d="M184.762 114.558c14.719-.138 29.438.023 44.152.481.293.01.594-.245.883-.236a1088.17 1088.17 0 0 0-44.151-.482c-.297.003-.59.234-.884.237M96.805.555c.222 3.64.011 7.283.06 10.926.1 7.566 1.981 14.934 2.732 22.438.703 7.032.784 14.124 1.818 21.123 1.007 6.81 3.324 12.953 6.255 19.142 3.16 6.676 6.464 13.481 6.257 21.045.002-.08.881-.143.884-.236.178-6.498-2.237-12.476-4.943-18.264-2.91-6.224-5.794-12.274-7.09-19.076-1.322-6.947-1.475-14.038-2.039-21.07-.587-7.33-2.29-13.981-2.828-21.309-.31-4.224-.326-8.747-.454-12.975-.13-4.35-1.695-9.182-2.404-13.469.003.023-.42.49-.413.527.614 3.712 1.936 7.438 2.165 11.198zM85.186 36.757c.888 3.2 2.626 6.162 3.16 9.453.596 3.668-.013 7.454-.077 11.144a86.981 86.981 0 0 0 2.363 21.656c.885 3.711 2.18 7.264 3.289 10.905 1 3.293 1.617 6.81-.331 9.87.118-.185.76-.042.883-.236 3.421-5.371-.725-12.478-2.21-17.872a87.083 87.083 0 0 1-3.11-21.561c-.064-3.587.306-7.15.311-10.731.007-3.759-1.256-6.729-2.528-10.179C84.543 32.712 84.3 25.68 84.67 18.84c.468-8.627 1.138-17.081.516-25.74.004.05-.372.48-.367.544 1.038 14.463-3.589 28.853.367 43.114zM81.15 168.083c12.766-1.17 25.201-5.085 36.289-11.518-.253.146-.628.088-.884.236-10.6 6.15-22.302 9.926-34.52 11.046-.3.027-.586.209-.885.236m11.87 2.204l-.125-.05c-.078-.033-.846.172-.884.236-.263.434 3.768.594 4.3.603 1.565.024 3.102-.102 4.626-.46 1.703-.4 3.264-1.018 4.694-2.05-.229.165-.65.069-.883.237-2.242 1.618-4.839 2.079-7.552 2.036-.533-.008-4.564-.169-4.301-.603l-.884.237.124.051c.228.093.665-.327.884-.237m-11.666 5.083c-.656 13.265 4.462 26.33 13.96 35.63.116.113.778-.339.885-.235-9.499-9.301-14.618-22.366-13.96-35.632-.005.087-.88.137-.885.237m7.629 6.862c.59 4.072 3.085 7.713 5.221 11.147a129.19 129.19 0 0 0 7.32 10.516c.075.098.816-.323.883-.237a129.032 129.032 0 0 1-7.319-10.516c-2.14-3.438-4.63-7.07-5.221-11.147.004.03-.89.195-.884.237m38.268 37.655c-.262 4.717-1.924 9.087-3.577 13.463-1.779 4.708-3.557 9.416-5.337 14.123.061-.16.82-.065.884-.236l5.336-14.123c1.653-4.375 3.316-8.748 3.579-13.463-.005.088-.879.135-.884.236M3.621 179.886c13.772-.82 27.384-3.234 40.62-7.11a178.648 178.648 0 0 0 21.011-7.608c3.724-1.62 7.428-3.339 11.01-5.253 2.823-1.51 5.562-3.314 6.71-6.44-.059.16-.822.066-.884.236-1.92 5.226-8.583 7.486-13.205 9.653a177.219 177.219 0 0 1-18.754 7.519c-14.74 4.956-30.107 7.842-45.624 8.766-.3.018-.587.22-.884.237"/><path fill="#000" d="M2.314 179.315c2.196 1.206 6.505 3.24 3.854 6.239-1.36 1.536-6.997 2.699-6.064 5.592.421 1.311 2.02 1.145 3.074.78.635-.22 1.1-.472 1.566-.996.843-.948 1.028-2.742 2.15-3.355l-.884.236c1.271.355 2.357 2.88 2.227 4.136-.15 1.443-2.748 2.344-2.152 3.855.288.728 1.008.64 1.61.953.76.394.908.824 1.162 1.63.748 2.362 1.437 4.744 2.154 7.116l.884-.237-.767-.679c-.129-.115-.762.343-.884.237.257.226.512.453.767.679.063.056.872-.279.884-.237l-1.773-5.86c-.581-1.917-.552-2.318-2.265-3.106-1.553-.716-.86-1.824.111-2.803 1.037-1.049 1.37-1.776.862-3.251-.406-1.181-1.123-3.058-2.602-2.495-1.79.68-1.672 3.543-3.716 4.351l.883-.236c-1.635.306-3.054-.687-2.142-2.438.847-1.626 2.804-2.089 4.277-2.945 1.362-.792 2.829-2.176 2.226-3.907-.614-1.766-3.055-2.67-4.558-3.496-.197-.108-.695.34-.884.237"/><path fill="#000" d="M10.824 203.83c-.997-.217-2.313.227-2.721 1.224-.694 1.693 1.24 3.318 2.176 4.498a32.694 32.694 0 0 1 3.69 5.816c1.051 2.125 2.037 6.047 5.127 5.573 2.832-.434 1.36-3.802-.648-4.495-.243-.083-.65.318-.884.237 1.406.485 3.754 3.49 1.223 4.336l.868-.231c-2.083-.15-3.01-1.717-3.81-3.46-.789-1.723-1.566-3.418-2.574-5.031-.989-1.582-2.174-2.953-3.305-4.423-1.019-1.323-1.76-2.88-.11-4.031l-.822.222.906.001c.268.058.622-.293.884-.236"/><path fill="#000" d="M16.649 216.692l.87.795c.096.088.823-.326.883-.237-.594-.896-1.163-2.029.101-2.592l-.883.236c1.59.181 2.589 1.988 3.517 3.125 1.28 1.568 2.56 3.134 3.838 4.703.917 1.125 1.779 2.21 2.428 3.512.421.847.542 1.289 1.559 1.318 1.214.034 2.455-1.158 3.312-1.816 3.14-2.408 6.1-5.03 8.913-7.81-.185.184-.693.048-.883.237a96.913 96.913 0 0 1-5.615 5.154c-1.736 1.465-3.7 3.513-5.857 4.266l.883-.237c-1.177-.18-1.222-1.033-1.719-1.965-.63-1.181-1.569-2.2-2.41-3.23-1.784-2.186-3.49-4.955-5.611-6.812-.676-.592-1.235-.77-2.032-.536-1.444.426-1.168 1.562-.425 2.684.295-.079.59-.157.884-.237l-.87-.794c-.125-.114-.767.343-.883.236"/><path fill="#000" d="M18.035 215.619c7.841-6.593 18.257-9.819 24.835-17.931-.153.188-.725.042-.884.236-6.578 8.113-16.993 11.338-24.834 17.931.208-.176.67-.057.883-.236m-7.556-11.941c.13.725.283 1.009.814 1.52.041.04.828-.183.884-.236 7.317-6.974 18.772-7.436 25.423-15.266-.16.188-.72.043-.884.237-6.65 7.83-18.106 8.29-25.423 15.265.295-.08.59-.158.884-.236-.532-.512-.684-.796-.814-1.52.003.018-.89.204-.884.236m-.367-10.763c4.358-3.872 11.208-1.688 15.768-5.404-.213.173-.666.058-.883.235-4.499 3.667-11.325 1.457-15.769 5.406.202-.18.678-.054.884-.237m-.245-6.065c2.501-1.719 5.747-1.4 8.642-1.738a54.924 54.924 0 0 0 7.293-1.373 58.84 58.84 0 0 0 10.04-3.56c-.272.125-.61.11-.884.236-6.325 2.92-12.822 4.223-19.71 4.808-2.181.185-4.433.604-6.265 1.864.235-.162.645-.072.884-.236M31.68 225.91a1.79 1.79 0 0 1 .874-.656l-.868.233c2.173-.49 3.368.957 4.585 2.488 1.015 1.276 2.025 2.34 3.519 3.062a8.823 8.823 0 0 0 3.896.878c.644-.258.895-.047.756.633.213.648-.331 1.382-.3 1.987-.518.595-.346.88.514.854.535.151 1.072.28 1.617.389 2.398.475 5.02.639 7.413.052.338-.084.69-.16 1.016-.28 1.695-.63 1.616-2.348 3.013-3.073l-.867.233c1.877-.438 3.586 1.087 5.493.53 2.487-.724.85-4.076 3.166-4.73l-.825.218c.438-.041 1.524-.09 1.995-.376.857-.522.738-1.1.892-1.995.2-1.161.59-2.263 1.118-3.316 2.147-4.288 6.15-7.575 6.83-12.53-.014.111-.866.114-.882.237-.477 3.472-2.609 6.185-4.582 8.961-.926 1.303-1.846 2.637-2.505 4.1-.58 1.283-.54 4.012-1.696 4.76l.884-.236c-.7.125-1.895.15-2.558.536-1.704.992-.274 3.633-2.28 4.486l.884-.237c-1.83.32-3.446-1.045-5.286-.587-.2.05-.484.079-.664.182-.772.443-.769 1.033-1.244 1.727-.55.804-1.174 1.18-2.127 1.44l.666-.174c-1.75.314-3.564.302-5.328.094a20.932 20.932 0 0 1-4.054-.888c.216-.398.373-.818.471-1.26.095-.425.346-1.712.025-2.01-.187-.171-1.61.004-2.01-.054a8.805 8.805 0 0 1-4.255-1.861c-1.876-1.534-3.013-4.84-5.892-4.593-.84.072-1.714.425-2.288 1.012.18-.184.698-.046.883-.236"/><path fill="#000" d="M46.647 230.73a520.21 520.21 0 0 1 20.583-28.38c-.147.188-.733.041-.884.236a520.722 520.722 0 0 0-20.581 28.38c.126-.188.753-.043.883-.237m18.662-14.973a108.241 108.241 0 0 0 5.06-9.572c-.08.173-.798.054-.883.237a108.37 108.37 0 0 1-5.06 9.572c.109-.184.77-.045.884-.237m2.458 9.299c.7-.55 1.215-.83 2.116-1.088l-.824.218c2.18-.364 4.297.218 6.157 1.383 1.362.854 2.381 1.948 4.094 1.59 2.348-.491 2.727-2.906 2.695-5.012l-.884.236c3.63.85 7.986 2.652 11.748 1.777a7.71 7.71 0 0 0 1.036-.297c1.926-.746 1.797-2.707 3.365-3.671l-.867.233c1.776-.371 3.497.65 5.31.495.614-.052 1.21-.188 1.804-.338 1.69-.428 3.251-1.125 4.765-1.988 1.533-.875 3.003-1.942 4.632-2.641 2.067-.888 4.057-.936 6.264-.884 1.684.04 3.294 0 4.92-.428 2.21-.58 3.858-1.91 5.662-3.258 1.63-1.218 3.147-1.97 5.102-2.552.935-.279 1.9-.52 2.78-.95.984-.481 1.759-1.135 2.215-2.146.41-.907.354-1.864 1.098-2.618.426-.43 1.043-.665 1.583-.904 1.95-.863 7.58-2.971 6.058-5.927-.032-.063-.857.287-.883.236 1.793 3.485-5.315 5.168-7.168 6.468-1.506 1.058-1.16 3.038-2.462 4.268-1.227 1.157-3.049 1.468-4.595 1.95-3.36 1.052-5.49 3.859-8.664 5.14-3.156 1.271-6.837.041-10.122.9-2.433.635-4.504 1.927-6.649 3.195-2.113 1.248-4.387 2.513-6.941 2.224-1.354-.154-2.528-.772-3.902-.46-1.812.41-1.713 2.146-2.987 3.238-1.415 1.211-3.737.653-5.375.303-2.29-.49-4.564-1.068-6.843-1.601-.077-.018-.884.219-.884.236.027 1.753-.14 3.976-1.941 4.807l.867-.234c-2.004.409-3.437-1.476-5.101-2.258-1.572-.738-3.286-1.07-5.003-.749-1.126.211-2.156.634-3.06 1.344.218-.172.661-.062.884-.237"/><path fill="#000" d="M142.462 194.622a3.49 3.49 0 0 1 1.081-.562l-.867.232c3.653-.849 6.01 2.01 8.77 3.797 1.3.842 2.673 1.402 4.18.913 2.146-.699 3.895-2.9 5.614-4.312 1.487-1.222 3-2.413 4.536-3.574 1.585-1.197 3.23-2.735 5.13-3.377l-.869.23c2.13-.177 3.875 1.29 6.005 1.311.843.008 1.655-.166 2.461-.388 2.693-.744 4.819-2.477 5.654-5.2-.045.15-.834.077-.883.237-.941 3.068-3.872 5.524-7.22 5.06-1.99-.276-3.565-1.626-5.635-1.126-2.305.555-4.355 2.59-6.184 3.99a143.404 143.404 0 0 0-4.515 3.598c-1.493 1.24-2.958 2.964-4.76 3.725l.883-.236c-4.092.354-6.428-4.658-10.474-5.041-1.288-.122-2.707.27-3.791.96.243-.156.637-.08.884-.237"/><path fill="#000" d="M162.829 183.636c5.103.503 10.22.83 15.348.949 4.394.101 8.888.209 13.218-.67 1.59-.322 3.197-.752 4.705-1.35 1.846-.73 3.684-1.752 5.088-3.175.62-.627 1.167-1.353 1.486-2.178.41-1.062.274-1.941 1.434-2.447l-.823.222c.716-.179 1.676-.295 2.368-.615 3.02-1.4 2.377-5.455.939-7.74-.757-1.2-1.76-2.487-2.902-3.336-1.492-1.11-3.406-1.159-5.182-1.393l-11.02-1.448c-.282-.037-.608.273-.884.237l11.02 1.448c1.633.215 3.48.256 4.89 1.193 1.252.831 2.403 2.262 3.194 3.536 1.454 2.343 2.097 6.49-1.104 7.771-.506.202-1.13.182-1.61.462-1.159.673-1.091 2.423-1.826 3.504-.771 1.135-1.917 2.008-3.064 2.74-3.482 2.225-7.666 2.822-11.721 2.994-7.538.32-15.172-.2-22.67-.94-.287-.029-.603.264-.884.236"/><path fill="#000" d="M204.733 159.892c.53 1.942.71 3.899.54 5.906.008-.097.874-.127.883-.236a16.793 16.793 0 0 0-.54-5.907c-.001-.007-.885.231-.883.237m-11.713-4.528c2.959.496 5.936.697 8.933.508.71-.045 1.419-.109 2.126-.194.716-.085 1.415-.463 1.694.106.316.64-.174 2.775-.8 3.078l.884-.237c-1.54.178-3.114.187-4.66.27-.299.016-.587.22-.884.236 1.354-.072 4.95.504 5.962-.903.263-.366.737-2.667.379-3.03-.24-.242-3.815.442-4.244.465-2.854.147-5.69-.063-8.505-.535-.277-.047-.613.282-.884.236m-75.725 1.268c7.844 2.82 16.166 3.184 24.418 2.658a252.32 252.32 0 0 0 24.098-2.73c5.232-.845 10.454-2.004 15.46-3.766 3.832-1.349 7.436-3.359 11.322-4.546 4.224-1.29 3.12-.564 3.686 2.06.367 1.702 1.563 2.936 3.117 3.621.222.098.671-.33.884-.236-1.555-.685-2.75-1.918-3.117-3.621-.287-1.33.412-2.69-1.442-2.64-1.007.027-2.24.514-3.213.803-3.637 1.08-7.007 2.859-10.538 4.214-5.186 1.99-10.628 3.155-16.104 4.006-7.956 1.236-16.061 2.198-24.102 2.65-7.983.447-16.006.015-23.585-2.71-.24-.085-.653.32-.884.237"/><path fill="#000" d="M154.406 158.027a102.552 102.552 0 0 0 25.337-14.407l-.883.236c-.232 2.71.602 5.104 2.468 7.087.103.11.79-.336.884-.237-1.867-1.982-2.7-4.376-2.469-7.086-.006.074-.793.166-.883.236a102.536 102.536 0 0 1-25.337 14.408c.28-.11.6-.126.883-.237m-34.691-99.332c.022-1.105-1.061-1.25-1.897-1.01-1.51.433-1.703 1.887-1.391 3.258.351 1.546 1.017 3.777 2.926 3.911.581.04 1.267-.177 1.777-.436-.223.113-.52.084-.745.199l-.463.19.642-.17c-1.724.152-2.598-1.296-3.068-2.739-.465-1.43-1.056-3.599.758-4.326l-.687.184c.786-.112 1.456.284 1.561 1.096-.004-.033.586-.112.587-.157m28.999 2.676c-.583 1.293-.502 2.804-.2 4.158 0-.003.638-.159.635-.17-.348-1.393-.185-2.65-.172-4.058-.001.028-.248.038-.263.07m85.43 67.727c3.946.19 6.421 3.143 8.58 6.115a67.876 67.876 0 0 1 3.257 4.917c.584.97 1.524 3.695 2.714 4.03.385.108 1.196-.11 1.466-.41.844-.932-.445-3.232-.76-4.17-.717-2.136-1.434-4.272-2.15-6.41-.007-.017-.661.186-.664.178l2.15 6.41c.374 1.113 1.75 3.505.422 4.4.22-.06.442-.12.662-.178-1.612.007-2.477-2.865-3.176-4.027a67.888 67.888 0 0 0-3.258-4.917c-2.155-2.963-4.64-5.927-8.581-6.115-.219-.011-.447.187-.662.177"/><path fill="#000" d="M245.673 129.74a482.946 482.946 0 0 1 5.167 3.329c.639.417 4.38 2.314 2.744 3.002l.663-.178c-3.442.388-6.266-1.371-8.722-3.595-.096-.086-.575.258-.664.177 2.366 2.142 5.717 4.44 9.1 3.499 1.496-.417.202-1.33-.645-1.89a471.39 471.39 0 0 0-6.98-4.522c-.133-.085-.536.258-.663.177"/><path fill="#000" d="M247.934 136.345c.761 1.114 1.618 2.184 2.611 3.103.538.497 1.007.705 1.705.508 2.355-.661-.304-3.843-1.183-4.747-.08-.084-.589.253-.663.177.696.715 1.411 1.475 1.803 2.407.297.706.586 1.928-.333 2.26.222-.058.442-.118.664-.177-.906.055-1.535-.78-2.098-1.385a19.791 19.791 0 0 1-1.844-2.323c-.044-.066-.622.236-.662.177m-3.974-10.483c2.346 1.319 4.907 1.942 7.434 2.81 1.032.354 2.052.75 3.013 1.269.664.357 2.988 1.572 2.22 2.232l.617-.167c-1.768.438-4.23-.66-5.965-1.083l-6.17-1.501c-.198-.048-.47.224-.664.177 3.491.85 7.035 2 10.58 2.574.576.093 1.583.255 2.135-.14.588-.42.413-.3-.012-.86-.796-1.048-2.543-1.695-3.723-2.175-2.925-1.19-6.027-1.753-8.803-3.313-.146-.082-.524.256-.663.177m-15.392-11.046c3.167.88 5.243 3.373 7.908 5.123 2.622 1.72 5.594 2.762 7.707 5.176.046.053.4-.166.442-.118-2.114-2.416-5.084-3.455-7.707-5.177-2.665-1.748-4.743-4.242-7.908-5.122-.128-.036-.317.152-.442.118"/><path fill="#000" d="M234.771 122.819c4.867 2.123 9.268 5 13.163 8.604.062.056.384-.172.442-.119a46.9 46.9 0 0 0-13.163-8.603c-.11-.048-.335.164-.442.118M94.612 225.131l-.117-1.741-.883.236 3.862 6.485c.046.077.846-.301.884-.237l-3.863-6.484c-.014-.026-.884.23-.883.236l.117 1.742c-.004-.052.888-.17.883-.237"/><path fill="#000" d="M97.41 220.123c.353 10.39.238 20.788-.075 31.178a1482.52 1482.52 0 0 1-.562 15.362c-.207 5.112-.276 10.276-1.162 15.328-1.625 9.275-5.84 17.86-7.542 27.15-1.612 8.792-2.17 17.753-4.053 26.5-1.038 4.82-2.49 9.559-4.694 13.982-2.238 4.494-5.174 8.712-5.49 13.872.006-.089.878-.133.885-.235.266-4.37 2.41-8.085 4.434-11.859a57.064 57.064 0 0 0 4.939-12.587c2.298-8.776 2.917-17.864 4.334-26.797.708-4.471 1.64-8.892 2.993-13.215 1.434-4.578 3.204-9.053 4.367-13.714 2.403-9.631 1.965-20.093 2.303-29.956.402-11.744.605-23.498.207-35.246.001.062-.887.161-.884.237M73.348 388.91c.155 2.422.876 4.778 3.312 5.781 2.13.877 5.157 1.064 7.433.746 2.494-.349 5.018-1.346 5.554-4.11.609-3.148.196-6.74.233-9.942.04-3.445.185-6.907.09-10.352-.083-3.037-1.38-5.739-1.568-8.71-.202-3.183 1.582-6.037 2.74-8.878 2.43-5.966 3.314-12.395 5.193-18.529 1.872-6.112 5.2-11.456 8.206-17.046 3-5.579 6.288-12.665 7.552-18.864 1.264-6.199 2.2-14.297 3.166-21.426 1.06-7.823 2.986-15.493 4.902-23.14-.034.138-.847.087-.883.237-1.563 6.234-3.127 12.476-4.229 18.812-1.062 6.096-1.81 12.516-2.693 18.705-.884 6.189-3.221 12.933-5.31 18.614-2.046 5.56-5.34 10.52-8.045 15.76-2.786 5.392-4.289 11.058-5.703 16.925-.64 2.653-1.297 5.307-2.183 7.89-1.016 2.963-2.82 5.8-3.423 8.886-.541 2.767.643 5.154 1.118 7.82.58 3.251.264 6.719.226 10-.032 2.944-.066 5.888-.1 8.832-.03 2.579.456 5.906-2.025 7.554-2.108 1.4-5.67.89-8.02.362-2.916-.655-4.293-2.622-4.607-5.503-.346-3.17-.012-6.47.044-9.651.066-3.803.132-7.608.2-11.412-.003.078-.883.146-.885.237-.118 6.733-.728 13.68-.295 20.403z"/><path fill="#000" d="M133.135 289.147c.18.113.71-.343.883-.236-8.838-5.481-13.369-12.47-16.854-22.256-.01-.03-.878.253-.883.236 3.484 9.786 8.015 16.775 16.854 22.256z"/><path fill="#000" d="M134.813 300.968c2.214 6.967 3.669 14.276 5.245 21.41 1.554 7.03 2.75 14.096 3.809 21.215.992 6.668 2.227 13.32 5.305 19.384.032.061.86-.286.884-.236-3.017-5.943-4.264-12.453-5.247-18.989-1.089-7.25-2.284-14.448-3.868-21.611-1.549-7.012-3.01-14.158-5.126-21.024-2.007-6.511-6.54-10.258-8.567-16.744-.006-.019.002.867 0 .862 1.988 6.357 5.545 9.376 7.565 15.733zm-10.299-70.411c1.926 3.775 2.531 8.014 3.533 12.09a160.729 160.729 0 0 0 3.691 12.735c2.766 8.248 6.227 16.268 10.4 23.905 4.12 7.542 8.835 14.497 10.797 22.993 1.948 8.444 1.906 17.174 2.22 25.786.169 4.663.308 9.436 1.177 14.033.683 3.612 2.087 7.278 5.541 9.035.205.105.685-.337.883-.236-6.605-3.36-6.268-13.53-6.58-19.802-.425-8.51-.238-17.092-1.659-25.522-.711-4.222-1.85-8.371-3.613-12.281-1.726-3.825-3.96-7.384-6.06-11.008a147.327 147.327 0 0 1-11.134-24.007 158.968 158.968 0 0 1-4.375-14.26c-1.174-4.574-1.771-9.452-3.937-13.698-.032-.062-.858.287-.884.237"/><path fill="#000" d="M155.715 343.22c1.884 3.357 4.805 6.006 8.422 7.392 1.424.545 4.02.524 4.813 1.963.868 1.575-.176 4.104-.488 5.697-1.906 9.739-2.25 19.71-1.15 29.566-.005-.039.888-.184.883-.236-1.099-9.856-.755-19.828 1.15-29.566.306-1.56 1.262-3.873.612-5.457-.672-1.64-3.163-1.567-4.62-2.09-3.755-1.348-6.798-4.047-8.738-7.505-.04-.071-.851.296-.884.237"/><path fill="#000" d="M166.994 372.627c-.458 4.894 1.088 8.73 3.142 13.05.604 1.272 2.131 4.188 1.23 5.563-.424.648-1.662.918-2.323 1.203-1.18.51-2.355 1.072-3.569 1.499l.884-.237c-.669.104-.916.13-1.423-.32-.129-.114-.762.345-.883.237.665.589 1.441.346 2.212.11.997-.304 1.95-.785 2.904-1.198 1.045-.45 2.883-.78 3.248-2 .725-2.422-1.971-6.09-2.9-8.14-1.442-3.177-1.963-6.536-1.638-10.003-.01.1-.874.125-.884.236"/><path fill="#000" d="M150.246 363.477c.395 6.01 3.6 11.35 6.238 16.623 2.736 5.468 5.264 11.149 9.21 15.88.085.102.806-.33.883-.236-3.946-4.732-6.473-10.413-9.209-15.88-2.638-5.273-5.844-10.612-6.238-16.623.004.053-.888.17-.884.236M79.382 348.3c2.474 3.292 6.158 4.504 10.207 3.632 1.024-.22 1.917-.597 2.348-1.624-.035.083-.405.029-.442.118-.867 2.064-4.12 1.718-5.974 1.474-2.507-.33-4.22-1.752-5.697-3.717-.035-.049-.41.16-.442.118m3.324-4.699c2.577 2.339 5.964 2.756 9.15 1.622-.143.051-.298.067-.442.118-2.884 1.027-6.057.148-8.266-1.858-.063-.057-.384.171-.442.118m-8.725 19.48c1.044.203 1.848.043 2.811-.362 1.871-.787 3.564-2.196 5.254-3.304 2.258-1.48 4.16-2.06 6.851-1.953.146.006.297-.124.442-.117-1.394-.056-2.793-.088-4.145.296-1.613.458-2.94 1.464-4.322 2.375-1.813 1.192-4.14 3.397-6.449 2.947-.136-.026-.309.144-.442.118m.503 13.209a16.703 16.703 0 0 0 6.067-4.635c1.948-2.349 3.786-5.433 7.222-5.596.15-.008.294-.112.442-.118-1.583.075-2.98.56-4.266 1.537-1.758 1.334-2.907 3.27-4.354 4.9-1.557 1.752-3.423 3.06-5.553 4.03.136-.061.305-.056.442-.118"/><path fill="#000" d="M82.139 368.865a36.794 36.794 0 0 0 6.788 9.391c.056.056.391-.17.442-.119a36.774 36.774 0 0 1-6.788-9.39c-.016-.031-.43.143-.442.118"/><path fill="#000" d="M73.53 376.075c3.703 2.454 13.41 8.286 16.216 1.433-.034.083-.407.031-.442.119-2.658 6.491-11.682.748-15.332-1.67-.086-.057-.36.172-.442.118m71.549-32.539c-1.025.194-.566-.795-.127-1.215.729-.698 2.31-1.19 3.238-1.524 1.88-.675 3.87-1.181 5.878-1.131.312.007 2.34.054 1.836.525l.442-.118a3.336 3.336 0 0 0-.107-.097c-.063-.057-.383.172-.441.118l.106.097c.023.021.413-.091.442-.118.438-.41-.854-.46-1.033-.478-1.199-.125-2.42-.026-3.602.188-.495.09-.983.202-1.469.33a23.58 23.58 0 0 0-2.493.802c-1.01.39-2.438.79-3.24 1.524-.421.387-.945 1.417.128 1.215.15-.028.293-.09.442-.118m.916 8.282c1.02-.271 2.028-.529 3-.947 2.82-1.213 5.177-3.375 8.32-3.802.15-.02.291-.098.441-.118-4.276.58-7.518 3.734-11.645 4.831-.135.036-.428.119-.116.036m2.705 7.32c2.352-4.616 6.91-7.406 9.943-11.506-.07.094-.37.02-.442.118-3.032 4.1-7.59 6.89-9.942 11.506.045-.088.394-.025.442-.118m10.653-8.958c-.54 3.02-3.07 4.426-5.275 6.216-2.184 1.774-3.556 4.04-4.12 6.797.013-.064.427-.049.442-.119.564-2.759 1.931-5.019 4.12-6.796 2.202-1.788 4.734-3.198 5.275-6.215-.011.06-.43.051-.442.118m-1.71 4.355c-.729 3.767-2.09 7.317-2.556 11.16-.481 3.971-.396 7.959.152 11.918-.003-.015.445-.096.442-.118-.548-3.959-.634-7.948-.152-11.918.466-3.843 1.827-7.392 2.556-11.16-.012.062-.429.05-.442.118m9.336 1.784c-1.315 5.886-5.82 10.58-6.542 16.64-.667 5.6 1.48 11.213 5.6 15.032.061.058.385-.17.442-.117-4.107-3.808-6.288-9.445-5.6-15.033.745-6.06 5.226-10.75 6.541-16.64-.014.066-.425.046-.442.118m-47.914-126.587c8.907-7.713 15.83-18.402 15.591-30.542-.113-5.767-1.869-11.532-5.427-16.122-3.69-4.76-8.895-8.018-13.935-11.173-.18-.113-.713.344-.884.237 5.04 3.155 10.243 6.413 13.935 11.173 3.563 4.594 5.304 10.35 5.428 16.122.26 12.13-6.697 22.84-15.592 30.542.205-.177.674-.055.884-.237"/><path fill="#000" d="M107.374 222.708c5.348 1.946 10.784 1.825 16.166.218-.21.063-.588.146-.853.226-4.721 1.41-9.843.989-14.429-.68-.238-.087-.653.32-.884.236"/><path fill="#050505" d="M137.45 59.813c.091.284.274.447.573.486.183.024.576-.273.729-.195l-.43-.218-.741.2c.252.083.436.214.6.424.068.085.697-.278.756-.202a1.178 1.178 0 0 0-.614-.422c-.193-.06-.57.283-.742.2l.442.213.729-.195c-.321-.02-.546-.165-.68-.457-.014-.027-.617.182-.622.166m-3.166-.645c.343.134.783.125 1.147.225.21.06.517-.246.725-.193-.446-.115-.894-.196-1.354-.171-.13.007-.407.182-.518.139m-3.124 7.637c.934 1.086 2.663 1.485 4.033 1.554.249.012.51-.216.756-.203-1.645-.087-2.896-.728-4.32-1.477-.076-.04-.423.18-.47.126m2.137-12.128c-.217.457.457.267.688.191.415-.138.7-.3.609-.835-.147-.86-1.392-1.163-1.996-1.643-.927-.74-1.884-.823-3.04-.811-.259.003-.516.204-.773.206.615-.006 1.252-.017 1.851.146.641.174 1.046.598 1.58.954.565.378 2.453 1.111 1.427 2.07l.668-.179c-.292.07-.43.005-.534-.227 0 .001-.465.098-.48.128m7.586 1.589c1.017.332 2.085-.043 3.11.207 1.112.271 1.594 1.27 2 2.236.018.041.79-.243.802-.213-.412-.968-.9-1.965-2.013-2.233-1.08-.261-2.226.056-3.326-.15-.167-.032-.417.204-.573.153m-4.402-5.329c-.794-1.314-1.7-2.52-3.198-3.06-1.477-.531-3.098-.411-4.633-.294-.267.02-.522.191-.787.21 1.539-.114 3.154-.226 4.637.294 1.53.536 2.429 1.764 3.353 3.018.044.06.596-.222.628-.168m2.789 5.47c.823-1.621 1.117-3.451 3.02-4.243 2.032-.845 3.264 1.15 5.138 1.266.25.015.513-.219.76-.203-1.322-.08-2.23-1.164-3.507-1.398-.727-.134-1.428.002-2.126.194-.725.2-1.39.484-1.96.993-.832.741-1.841 2.285-1.516 3.443 0-.007.183-.037.19-.052m-7.196 8.029c.147 0 .294-.117.438-.117-.146 0-.293.117-.438.117"/><path fill="#050505" d="M130.587 64.482c.447-.044.86-.178 1.294-.283.594-.143.929-.1 1.464.187.282.15.472.304.794.37.376.077.606-.036.95.173.555.338.83.873 1.476 1.132a3.207 3.207 0 0 0 1.623.193c.47-.064.945-.222 1.396-.366-.186.059-.526.126-.763.202-.756.24-1.889-.373-2.426-.852-.42-.375-.556-.598-1.121-.683-.545-.082-.79-.214-1.296-.448-.99-.457-1.746.087-2.729.198-.224.025-.439.155-.662.177"/></g></svg>